<svg width="584" height="584" viewBox="0 0 584 584" fill="none" xmlns="http://www.w3.org/2000/svg">
<path fill-rule="evenodd" clip-rule="evenodd" d="M342.37 500.838C324.383 516.11 304.527 522.622 282.744 520.344C271.297 519.176 261.019 516.256 251.967 511.584C236.812 498.502 229.804 485.333 230.914 472.076C212.926 463.813 219.964 458.44 251.967 455.929C259.208 456.513 265.282 458.119 270.1 460.776C278.013 465.039 289.372 464.922 304.206 460.426C317.754 456.25 330.456 455.287 342.341 457.506C361.846 465.098 361.846 479.552 342.37 500.838Z" fill="#D04F65"/>
<path fill-rule="evenodd" clip-rule="evenodd" d="M251.967 511.584C241.484 506.182 232.607 498.444 225.424 488.37C212.576 470.5 198.531 458.002 183.259 450.877C205.159 455.374 223.146 457.068 237.221 455.987C242.564 455.549 247.499 455.52 251.967 455.9C219.934 458.411 212.926 463.813 230.914 472.047C229.804 485.333 236.812 498.502 251.967 511.584ZM342.37 500.838C361.876 479.552 361.876 465.098 342.37 457.506C343.538 457.739 344.648 458.002 345.757 458.294C358.605 461.36 371.366 459.958 384.038 454.002C387.075 455.754 390.024 456.308 392.886 455.637C383.776 461.243 369.351 474.062 349.582 494.152C347.217 496.546 344.823 498.765 342.37 500.838Z" fill="#CC425A"/>
<path fill-rule="evenodd" clip-rule="evenodd" d="M345.757 480.866C348.356 482.559 342.75 487.436 328.967 495.466C326.339 497.072 323.449 497.451 320.324 496.517C317.141 495.524 316.032 497.305 316.995 501.86C317.959 506.416 314.747 506.766 307.359 502.912C299.913 499.028 296.526 495.553 297.198 492.516C297.84 489.421 302.249 488.954 310.484 491.086C318.66 493.217 328.033 489.83 338.574 480.982C340.764 479.201 343.188 479.143 345.757 480.866ZM254.245 488.808C255.179 488.808 255.967 489.129 256.61 489.801C257.252 490.472 257.573 491.29 257.573 492.224C257.573 493.217 257.252 494.064 256.61 494.706C255.967 495.378 255.179 495.699 254.245 495.699C253.281 495.699 252.463 495.378 251.821 494.706C251.179 494.035 250.857 493.217 250.857 492.224C250.857 491.29 251.179 490.472 251.821 489.801C252.493 489.158 253.281 488.808 254.245 488.808Z" fill="#DB798A"/>
<path fill-rule="evenodd" clip-rule="evenodd" d="M205.335 460.075C226.037 473.39 253.777 480.282 288.525 480.72C323.273 481.099 350.342 474.88 369.701 462.09C389.032 449.242 404.741 446.556 416.859 454.031C401.734 451.812 385.323 456.133 367.57 467.054C349.816 477.975 324.909 483.873 292.789 484.749C260.669 485.625 234.213 479.522 213.394 466.47C192.545 453.418 178.062 447.578 169.886 448.892C172.806 442.964 184.632 446.702 205.335 460.075Z" fill="#77202F"/>
<path fill-rule="evenodd" clip-rule="evenodd" d="M403.369 228.14C405.209 222.592 406.026 215.817 405.793 207.846C401.997 219.292 397.763 226.008 393.091 227.994C401.5 213.861 402.347 204.429 395.66 199.728C380.768 199.261 371.833 200.575 368.825 203.641C367.891 198.268 370.227 194.91 375.775 193.538C381.381 192.107 400.624 192.808 433.533 195.611C466.441 198.297 494.531 185.508 517.833 157.184C515.993 161.155 514.65 164.454 513.803 166.995C512.139 172.163 518.972 178.587 534.243 186.296C517.775 180.047 511.234 179.609 514.533 184.982C519.059 192.399 522.388 198.268 524.491 202.59C515.322 192.895 510.037 189.099 508.635 191.202C512.752 199.553 518.008 206.035 524.432 210.62C519.614 208.576 514.709 205.13 509.745 200.224C504.751 195.202 502.357 194.647 502.532 198.589L517.57 212.985C507.029 206.532 500.955 203.378 499.349 203.524C499.203 206.356 501.393 211.262 505.919 218.182C500.839 213.306 496.809 208.4 493.801 203.524C496.488 212.255 500.897 219.759 507.029 226.096C497.51 219.117 491.845 213.861 489.976 210.298C490.356 212.284 490.327 214.24 489.889 216.138C487.903 212.196 486.122 210.298 484.545 210.444C481.683 210.766 483.319 213.16 489.48 217.569C494.882 220.84 498.094 223.146 499.116 224.46C493.977 223.117 489.071 221.453 484.399 219.496L484.311 223.993C484.808 225.366 486.939 226.68 490.706 227.906C486.998 226.767 484.253 226.271 482.443 226.417C481.362 227.789 480.253 228.548 479.114 228.636C473.011 221.511 469.069 217.978 467.259 218.007C468.835 222.562 471.96 227.176 476.69 231.819C474.763 230.884 473.215 230.446 472.106 230.534C470.879 232.257 470.879 234.359 472.106 236.87C470.354 235.878 468.777 234.155 467.405 231.731C461.623 229.512 456.893 224.898 453.184 217.92C446.468 216.168 448.658 220.986 459.696 232.432L449.709 229.074C449.943 233.308 451.082 237.425 453.155 241.455C448.95 237.717 445.709 232.169 443.431 224.811C442.147 220.664 440.482 218.883 438.467 219.409C435.606 219.847 433.941 224.256 433.474 232.666C429.094 230.271 426.787 223.03 426.525 210.941C421.677 217.92 418.874 223.876 418.115 228.782C415.896 225.074 414.961 220.635 415.283 215.408L403.369 228.14ZM392.886 185.478C401.909 180.66 424.977 174.85 462.149 168.104C493.743 162.323 516.548 152.278 530.564 137.999C512.869 156.979 487.553 168.688 454.586 173.068C423.254 177.332 402.697 181.449 392.886 185.478ZM479.756 217.102C477.683 215.584 475.756 214.328 473.975 213.306C472.398 215.204 475.143 218.27 482.151 222.504C482.53 220.402 481.742 218.591 479.756 217.102ZM560.64 80.6503C537.689 113.15 499.933 139.05 447.373 158.352C394.784 177.682 365.672 190.705 360.036 197.421C354.78 182.704 377.702 166.002 428.802 147.256C479.844 128.538 523.79 106.317 560.64 80.6503ZM202.502 167.433C217.978 174.412 225.921 184.427 226.242 197.421C224.315 193.946 216.372 189.187 202.502 183.142C188.545 177.069 168.543 169.681 142.525 161.009C90.491 143.635 51.655 116.537 25.9882 79.6575C42.895 96.5643 100.769 125.414 199.582 166.206C200.575 166.586 201.539 167.024 202.502 167.433ZM209.977 193.1C215.525 194.998 217.891 196.341 217.102 197.1C214.27 196.428 209.393 196.341 202.502 196.779C200.984 196.866 199.407 197.012 197.684 197.158C199.436 197.684 201.042 198.297 202.502 199.056C206.123 200.925 208.78 203.495 210.474 206.765C207.233 204.108 204.575 202.327 202.502 201.422C197.305 199.173 195.874 202.59 198.181 211.671C195.64 210.006 193.246 207.262 191.027 203.407C190.326 207.875 191.757 213.598 195.261 220.577C193.742 221.19 189.975 216.518 183.96 206.561C182.763 216.43 184.019 224.373 187.756 230.417C184.252 228.315 181.303 223.234 178.909 215.116C176.514 206.999 174.587 206.415 173.156 213.394C171.725 220.285 172.339 225.57 175.025 229.278C169.623 222.212 165.185 216.635 161.71 212.634C162.031 222.942 163.841 229.804 167.141 233.191C164.951 232.14 162.819 230.972 160.746 229.716C159.461 236.549 156.863 241.513 153.008 244.579C159.461 231.439 158.936 222.796 151.402 218.591C149.037 216.372 147.577 216.518 147.022 219.088C143.985 229.775 141.387 235.031 139.255 234.826C141.649 221.862 140.978 216.985 137.24 220.139C129.794 231.001 125.327 236.812 123.808 237.513C124.772 234.534 126.057 231.001 127.692 227.001C123.779 231.089 120.275 232.841 117.238 232.257C124.655 226.096 128.101 221.161 127.546 217.511C126.991 214.153 125.502 214.503 123.137 218.562C117.267 226.3 110.931 230.534 104.127 231.235C114.493 224.022 119.078 218.737 117.939 215.408C116.654 214.094 115.223 214.386 113.705 216.284C102.434 225.862 94.7834 231.206 90.783 232.315C101.879 219.788 106.931 213.072 105.967 212.167C105.471 207.904 102.93 207.466 98.4042 210.824C89.9946 218.562 81.9646 222.884 74.3434 223.847C89.177 213.744 94.3454 207.086 89.8778 203.904C83.8626 210.532 76.0078 216.693 66.255 222.329C82.4318 205.539 86.0234 198.706 77.0006 201.889C72.6498 203.349 67.0142 207.028 60.0938 212.926C60.0062 211.35 62.021 208.05 66.1966 202.969C62.6634 205.072 59.2178 205.013 55.8598 202.765C68.0362 199.699 75.745 193.362 78.9278 183.814C71.4818 193.888 62.2254 197.801 51.1878 195.494C60.269 194.822 67.569 190.734 73.1462 183.201C77.497 175.93 77.4094 173.565 72.8542 176.047C67.8026 182.675 61.0866 185.011 52.6478 183.055C65.2038 180.398 72.0366 174.207 73.117 164.542C71.5402 162.177 70.0218 159.724 68.5326 157.154C90.4326 186.997 118.143 199.962 151.607 196.078C176.047 193.187 193.012 191.873 202.561 192.165C205.977 192.282 208.459 192.574 209.977 193.1ZM138.583 175.463C174.383 181.77 192.662 185.099 193.421 185.478C187.464 184.427 167.783 181.624 134.349 177.01C100.886 172.368 74.2558 158.906 54.429 136.598C74.6646 156.191 102.697 169.156 138.583 175.463ZM365.73 363.686C365.029 377.585 360.27 386.199 351.451 389.528C342.633 392.798 334.72 398.726 327.741 407.34C320.733 415.925 311.681 421.093 300.585 422.845C312.703 418.056 321.609 411.574 327.332 403.427C333.026 395.28 340.122 390.2 348.677 388.214C357.175 386.141 362.839 377.994 365.73 363.686Z" fill="black"/>
</svg>
