<svg width="704" height="106" viewBox="0 0 704 106" fill="none" xmlns="http://www.w3.org/2000/svg">
<path d="M49.3039 5.49947C50.2129 5.72195 50.7582 6.81413 50.8794 8.73556C51.0208 10.657 50.8592 13.2054 50.435 16.3201C49.9907 19.4551 49.3443 23.035 48.4758 27.1206C47.6073 31.1859 46.5974 35.494 45.4461 40.0447C44.2948 44.5955 43.0829 49.2473 41.7902 53.9801C40.4975 58.7129 39.225 63.3445 37.9727 67.8346C36.7003 72.3449 35.5288 76.5721 34.4179 80.5161C33.307 84.46 32.3778 87.9388 31.6305 90.9322C30.863 93.9256 30.3378 96.2718 30.0147 98.0112C29.6915 99.7303 29.6915 100.6 30.0147 100.6C30.1156 100.6 30.4994 99.791 31.1862 98.1932C31.8729 96.5751 32.802 94.3908 33.9331 91.6401C35.0844 88.8894 36.4175 85.6533 37.9525 81.9925C39.4876 78.3115 41.1843 74.4079 43.0223 70.2617C44.8603 66.1154 46.7792 61.8681 48.799 57.4589C50.8188 53.07 52.879 48.8226 54.9594 44.6966C57.0398 40.5908 59.1405 36.6873 61.2613 33.0062C63.3821 29.3252 65.4221 26.1295 67.4217 23.3789C69.4213 20.6484 71.32 18.464 73.1378 16.8662C74.9557 15.2482 76.6119 14.4796 78.1268 14.5201C79.783 14.5605 81.0353 15.1875 81.8836 16.3808C82.732 17.5741 83.2773 19.1719 83.4995 21.1743C83.7217 23.1766 83.7015 25.5228 83.4389 28.2128C83.1561 30.9028 82.732 33.7343 82.1664 36.7277C81.6009 39.7211 80.9343 42.7954 80.1668 45.9303C79.3993 49.0855 78.6721 52.1396 77.9248 55.1127C77.1977 58.0859 76.5109 60.877 75.8848 63.4861C75.2586 66.0952 74.8143 68.4009 74.5517 70.3426C74.2689 72.3045 74.2083 73.8214 74.3497 74.9338C74.4911 76.0462 74.9759 76.5721 75.804 76.5114C76.1675 76.4709 76.7735 75.7226 77.6218 74.3068C78.4701 72.891 79.5003 70.9898 80.692 68.6436C81.8836 66.2975 83.2369 63.6277 84.7114 60.6343C86.2061 57.6409 87.7815 54.6071 89.458 51.4924C91.1344 48.3979 92.8513 45.3438 94.6287 42.3504C96.386 39.357 98.1432 36.7075 99.9004 34.3816C101.637 32.0556 103.354 30.1949 104.99 28.7589C106.647 27.3431 108.182 26.6149 109.596 26.6149C110.969 26.6149 111.757 27.5858 111.979 29.5476C112.181 31.5095 112.019 34.0984 111.454 37.3143C110.908 40.5301 110.08 44.1909 109.01 48.317C107.939 52.4227 106.808 56.6499 105.677 60.9781C104.526 65.3064 103.455 69.5336 102.445 73.7C101.436 77.8665 100.729 81.6082 100.304 84.9454C99.9004 88.2826 99.9004 91.0131 100.304 93.157C100.708 95.3009 101.759 96.474 103.395 96.7167C104.95 96.9392 106.667 96.4538 108.525 95.2402C110.383 94.0267 112.322 92.348 114.302 90.2445C116.301 88.1209 118.301 85.6736 120.301 82.8622C122.3 80.0509 124.239 77.1788 126.118 74.2057C127.996 71.2325 129.753 68.2998 131.389 65.4076C133.025 62.5153 134.46 59.9264 135.692 57.6409C136.924 55.3554 137.913 53.5149 138.661 52.0789C139.388 50.6631 139.792 49.8946 139.832 49.7934C140.236 49.3282 140.62 49.0855 140.943 49.0653C141.266 49.0451 141.509 49.126 141.67 49.3485C141.832 49.5507 141.913 49.8136 141.913 50.1373C141.913 50.4609 141.792 50.744 141.569 50.9665C141.529 51.007 141.145 51.7553 140.438 53.2116C139.731 54.6678 138.742 56.5892 137.51 58.9758C136.277 61.3625 134.803 64.0727 133.126 67.0863C131.45 70.0999 129.632 73.1742 127.653 76.2889C125.673 79.4239 123.593 82.4577 121.412 85.4309C119.23 88.404 117.008 91.0131 114.766 93.2582C112.524 95.5032 110.282 97.283 108.061 98.5977C105.839 99.9123 103.678 100.438 101.617 100.216C99.3147 99.9932 97.5373 99.164 96.2446 97.7684C94.9519 96.3729 94.043 94.5324 93.4976 92.2873C92.9523 90.0423 92.7099 87.4534 92.8109 84.5612C92.9119 81.6689 93.1946 78.6148 93.6996 75.4192C94.2045 72.2236 94.8711 68.9672 95.6992 65.63C96.5273 62.2928 97.3757 59.077 98.2442 55.942C99.1127 52.807 99.9812 49.8743 100.83 47.1439C101.678 44.4134 102.385 42.047 102.971 40.0447C103.536 38.0424 103.94 36.5052 104.142 35.4333C104.344 34.3613 104.243 33.8759 103.839 34.0175C101.092 37.1525 98.6482 40.5099 96.5071 44.0898C94.3661 47.6697 92.4271 51.2497 90.6901 54.7891C88.953 58.3286 87.3574 61.7265 85.9031 64.9626C84.4488 68.1987 83.0349 70.9898 81.6413 73.336C80.2476 75.6822 78.8135 77.4822 77.3794 78.716C75.9252 79.9497 74.3295 80.3745 72.5925 79.9497C70.7948 79.5452 69.5627 78.2912 68.876 76.2282C68.1893 74.1652 67.8459 71.5764 67.8863 68.5021C67.9065 65.4278 68.2095 61.9894 68.8154 58.2275C69.4213 54.4655 70.1081 50.6429 70.916 46.8203C71.7239 42.9774 72.5521 39.2559 73.4206 35.6558C74.2891 32.0556 75.0163 28.86 75.5818 26.1093C76.1474 23.3586 76.4907 21.1743 76.5715 19.5967C76.6725 18.0191 76.3695 17.3112 75.6828 17.4932C73.562 19.4146 71.3604 22.0844 69.078 25.4621C66.7754 28.8397 64.4526 32.6422 62.0894 36.8693C59.7262 41.0964 57.3832 45.6067 55.0604 50.38C52.7376 55.1532 50.5158 59.9264 48.3748 64.6997C46.2338 69.4527 44.2342 74.0439 42.376 78.4328C40.5177 82.8218 38.8817 86.7253 37.4476 90.1636C36.0337 93.5818 34.8622 96.4133 33.9735 98.6179C33.0848 100.823 32.5192 102.097 32.2769 102.42C32.0951 102.703 31.8729 103.047 31.6305 103.492C31.3679 103.937 31.0044 104.261 30.5196 104.483C30.0349 104.706 29.4087 104.726 28.6614 104.544C27.8938 104.362 26.9647 103.775 25.874 102.825C24.9045 101.955 24.3794 100.357 24.2582 98.0314C24.137 95.7054 24.3592 92.8536 24.8843 89.4355C25.4095 86.0376 26.1972 82.215 27.2273 77.9879C28.2574 73.7607 29.3885 69.3313 30.6408 64.6794C31.8729 60.0276 33.1858 55.2948 34.5391 50.4811C35.8923 45.6472 37.1648 40.9346 38.3565 36.303C39.5482 31.6916 40.5985 27.2824 41.5276 23.1361C42.4365 18.9697 43.0829 15.2684 43.4465 11.9919C41.8306 15.3493 40.1945 18.9292 38.4777 22.7114C36.7811 26.5138 34.9834 30.3365 33.105 34.2198C31.2265 38.1031 29.2269 41.9257 27.1465 45.7079C25.0661 49.4698 22.8241 53.0093 20.4609 56.3263C18.0977 59.6433 15.5729 62.5962 12.8866 65.2255C10.2002 67.8548 7.33207 69.9583 4.30234 71.5763C3.83778 71.7988 3.43382 71.8595 3.09045 71.7584C2.74708 71.637 2.5047 71.455 2.36331 71.1718C2.22192 70.8887 2.22192 70.5853 2.32291 70.2415C2.4441 69.8976 2.70668 69.5943 3.11064 69.3111C6.14038 67.6121 9.04892 65.3266 11.8161 62.4748C14.6034 59.623 17.2292 56.4274 19.6934 52.8879C22.1777 49.3485 24.5207 45.5865 26.7627 41.5819C28.9845 37.5772 31.0852 33.5928 33.0242 29.6083C34.9834 25.6239 36.8012 21.7608 38.4979 18.0191C40.1945 14.2774 41.7498 10.8592 43.1839 7.78495C43.2849 7.64337 43.4869 7.42089 43.81 7.13773C44.1332 6.83435 44.517 6.55119 44.9411 6.26804C45.3855 5.98488 45.8298 5.78262 46.2742 5.62082C46.7388 5.45901 47.1427 5.43878 47.5063 5.58036C48.3142 5.41856 48.9 5.39834 49.3039 5.49947Z" fill="black"/>
<path d="M157.789 46.4562C158.192 45.4045 158.819 44.737 159.647 44.4943C160.475 44.2516 161.323 44.1909 162.192 44.3527C163.06 44.5145 163.848 44.8179 164.535 45.2831C165.221 45.7483 165.666 46.1326 165.848 46.4562C166.13 46.9618 166.05 48.1349 165.646 49.9754C165.242 51.816 164.636 53.9599 163.848 56.4274C163.06 58.8949 162.172 61.504 161.162 64.2547C160.152 67.0054 159.202 69.574 158.293 71.9202C157.385 74.2663 156.617 76.2484 155.95 77.8867C155.284 79.525 154.92 80.4553 154.88 80.6778C154.516 81.7902 154.395 82.5992 154.496 83.1251C154.617 83.651 154.88 83.9544 155.324 84.015C155.769 84.0757 156.334 83.9746 157.041 83.6712C157.748 83.3678 158.536 82.9431 159.425 82.397C160.717 81.5677 162.131 80.3542 163.686 78.7362C165.242 77.1181 166.858 75.318 168.534 73.3157C170.21 71.3134 171.907 69.1897 173.604 66.9447C175.3 64.6996 176.936 62.5153 178.492 60.3916C180.047 58.2679 181.501 56.306 182.834 54.4857C184.167 52.6654 185.298 51.189 186.207 50.0361C186.43 49.7529 186.692 49.5911 186.975 49.5507C187.258 49.5102 187.48 49.5507 187.662 49.6923C187.843 49.8339 187.944 50.0563 187.944 50.3395C187.944 50.6429 187.783 51.0271 187.46 51.4721C185.723 53.8587 183.925 56.3667 182.087 58.9556C180.249 61.5444 178.391 64.1131 176.512 66.6413C174.634 69.1695 172.755 71.5965 170.897 73.9225C169.039 76.2484 167.221 78.3317 165.464 80.1722C163.686 82.0127 161.99 83.5499 160.374 84.7634C158.738 85.9769 157.223 86.7455 155.789 87.0691C155.425 87.1702 154.819 87.2714 153.971 87.4129C153.123 87.5545 152.234 87.5343 151.325 87.3523C150.416 87.1702 149.548 86.7253 148.78 86.0174C147.992 85.3095 147.508 84.1364 147.326 82.5386C147.144 81.3453 147.366 79.6059 148.013 77.3002C148.659 74.9945 149.487 72.4663 150.497 69.7156C149.386 71.0909 148.114 72.5471 146.68 74.1045C145.225 75.6417 143.731 77.0372 142.175 78.271C140.62 79.5047 139.004 80.516 137.348 81.2644C135.692 82.0127 134.116 82.3161 132.601 82.1341C130.945 81.952 129.693 80.961 128.844 79.1407C127.996 77.3204 127.572 75.1158 127.612 72.5269C127.633 69.9381 128.097 67.1267 128.986 64.1536C129.875 61.1602 131.208 58.369 132.985 55.7397C134.742 53.1104 136.964 50.9058 139.63 49.126C142.296 47.3259 145.387 46.3146 148.921 46.0921C150.396 45.991 151.709 46.0719 152.88 46.3348C154.052 46.5978 154.961 46.8 155.607 46.982C156.112 47.1236 156.455 47.3461 156.637 47.6293C156.819 47.9326 156.88 48.236 156.839 48.5192C156.799 48.8226 156.657 49.0451 156.455 49.2069C156.253 49.3687 155.991 49.3484 155.668 49.1664C155.526 49.126 155.264 48.9844 154.84 48.7821C154.415 48.5799 153.91 48.3978 153.284 48.236C152.658 48.0742 151.992 47.9731 151.244 47.9326C150.517 47.8922 149.75 47.9933 148.962 48.2765C146.76 49.0046 144.781 50.2586 143.044 51.998C141.307 53.7374 139.832 55.7195 138.641 57.9038C137.449 60.0882 136.54 62.3535 135.914 64.6996C135.288 67.0458 134.965 69.1897 134.944 71.1112C134.924 73.0326 135.227 74.6304 135.833 75.8642C136.459 77.0979 137.409 77.7047 138.701 77.6642C139.671 77.6642 140.761 77.199 142.014 76.2889C143.246 75.3787 144.498 74.2663 145.771 72.9719C147.043 71.6775 148.235 70.3223 149.386 68.8661C150.537 67.4099 151.507 66.1559 152.274 65.1041C153.103 62.8591 153.931 60.6545 154.759 58.5106C155.587 56.3667 156.294 54.4453 156.859 52.7261C157.425 51.0069 157.829 49.5911 158.031 48.4787C158.233 47.3663 158.152 46.6989 157.789 46.4562Z" fill="black"/>
<path d="M200.084 46.6787C201.275 46.9012 202.023 47.6293 202.326 48.8226C202.629 50.0159 202.629 51.5328 202.326 53.3329C202.023 55.1532 201.497 57.196 200.75 59.4612C199.983 61.7467 199.175 64.0524 198.266 66.3986C197.377 68.7448 196.468 71.0707 195.579 73.3562C194.691 75.6619 193.943 77.7452 193.337 79.6059C192.731 81.4667 192.368 83.024 192.206 84.2578C192.045 85.4916 192.247 86.2803 192.792 86.604C193.661 87.1096 194.893 86.7455 196.468 85.532C198.044 84.3185 199.801 82.5993 201.74 80.3542C203.659 78.1294 205.658 75.5406 207.739 72.6281C209.799 69.7156 211.758 66.8031 213.596 63.9108C215.434 61.0186 217.07 58.2881 218.484 55.6993C219.898 53.1306 220.948 51.0879 221.574 49.5709C221.675 49.3889 221.817 49.2473 222.019 49.126C222.221 49.0046 222.443 48.9642 222.665 48.9844C222.887 49.0046 223.11 49.1057 223.291 49.2878C223.473 49.4698 223.574 49.7732 223.574 50.1777C223.574 50.3597 223.271 51.0676 222.685 52.3216C222.079 53.5554 221.272 55.133 220.241 57.0139C219.211 58.8949 217.979 61.0186 216.565 63.385C215.151 65.7514 213.616 68.138 211.98 70.5651C210.344 72.9719 208.648 75.3585 206.85 77.7047C205.052 80.0509 203.255 82.1341 201.437 83.9746C199.619 85.8152 197.842 87.3118 196.105 88.4647C194.367 89.6175 192.731 90.2243 191.217 90.3255C189.237 90.467 187.823 90.0221 186.955 88.9906C186.086 87.959 185.581 86.5433 185.48 84.7432C185.359 82.9431 185.581 80.9003 186.106 78.5744C186.632 76.2484 187.318 73.8416 188.146 71.3741C188.975 68.8863 189.863 66.4188 190.833 63.9513C191.802 61.4838 192.671 59.259 193.479 57.2364C194.287 55.2139 194.933 53.5149 195.438 52.1598C195.943 50.8047 196.125 49.935 195.983 49.5709C195.802 48.9642 195.579 48.681 195.297 48.7012C195.014 48.7215 194.569 48.8833 193.923 49.1866C193.277 49.49 192.388 49.8743 191.277 50.3193C190.146 50.7845 188.651 51.1688 186.773 51.4924C185.298 51.7149 184.026 51.5328 182.955 50.9463C181.885 50.3395 181.037 49.5305 180.411 48.499C179.784 47.4675 179.421 46.2944 179.3 45.0202C179.178 43.7257 179.34 42.492 179.744 41.2987C180.148 40.1054 180.855 39.0536 181.845 38.1233C182.834 37.2131 184.147 36.6063 185.803 36.3232C187.278 36.04 188.389 36.303 189.177 37.0917C189.964 37.8805 190.449 38.9121 190.651 40.1863C190.853 41.4807 190.813 42.8965 190.51 44.4539C190.207 46.0112 189.722 47.4472 189.035 48.7215C189.863 48.5394 190.691 48.2765 191.54 47.9529C192.388 47.6293 193.277 47.3259 194.186 47.063C195.095 46.7798 196.064 46.5978 197.054 46.5169C198.003 46.436 199.013 46.4764 200.084 46.6787ZM186.026 38.4671C184.915 38.6491 184.127 39.2963 183.622 40.3885C183.117 41.5009 182.895 42.674 182.935 43.9482C182.976 45.2224 183.299 46.3551 183.905 47.4068C184.511 48.4383 185.359 48.9844 186.45 49.0248C186.773 48.4181 187.157 47.5079 187.621 46.2742C188.086 45.0404 188.389 43.8066 188.55 42.5931C188.712 41.3796 188.631 40.3481 188.308 39.4986C187.985 38.6087 187.217 38.2851 186.026 38.4671Z" fill="black"/>
<path d="M220.666 43.5639C221.07 42.5122 221.696 41.8448 222.524 41.6021C223.352 41.3593 224.18 41.2987 225.028 41.4605C225.877 41.6223 226.664 41.9257 227.371 42.3908C228.078 42.856 228.523 43.2403 228.705 43.5639C228.987 44.0696 228.927 45.0606 228.523 46.5573C228.139 48.054 227.553 49.7732 226.806 51.6946C226.038 53.616 225.19 55.679 224.221 57.8229C223.251 59.9871 222.342 61.9894 221.474 63.8299C220.605 65.6705 219.838 67.2278 219.191 68.5223C218.545 69.8167 218.201 70.565 218.161 70.8078C217.798 71.9202 217.636 72.7292 217.676 73.255C217.717 73.7809 217.939 74.1247 218.323 74.2461C218.706 74.3877 219.272 74.3877 219.979 74.2461C220.686 74.1045 221.554 73.9225 222.564 73.7C223.897 73.4168 225.311 72.8505 226.826 71.9808C228.341 71.1111 229.876 70.0392 231.431 68.765C232.987 67.4907 234.562 66.0952 236.117 64.5176C237.672 62.9602 239.187 61.3422 240.621 59.6837C242.076 58.0252 243.429 56.3667 244.681 54.7082C245.954 53.0497 247.065 51.4923 248.014 50.0159C248.196 49.7327 248.458 49.5911 248.782 49.5709C249.105 49.5507 249.387 49.6114 249.61 49.7732C249.832 49.935 249.973 50.1777 250.014 50.5013C250.054 50.8249 249.913 51.189 249.61 51.6137C246.54 56.0835 243.611 59.8253 240.823 62.8591C238.036 65.8929 235.41 68.3807 232.906 70.3426C230.401 72.3044 227.998 73.8011 225.675 74.8529C223.352 75.9046 221.13 76.6934 219.03 77.199C218.666 77.3001 218.06 77.4013 217.212 77.5428C216.363 77.6844 215.475 77.6642 214.566 77.4822C213.637 77.3002 212.788 76.8552 212.021 76.1473C211.233 75.4394 210.748 74.2663 210.567 72.6685C210.425 71.5156 210.647 70.0392 211.213 68.2189C211.778 66.3986 212.526 64.4569 213.414 62.3939C214.303 60.3309 215.273 58.2275 216.303 56.0835C217.333 53.9396 218.262 51.998 219.05 50.2181C219.858 48.4585 220.423 46.9618 220.767 45.7281C221.191 44.5145 221.13 43.7864 220.666 43.5639ZM230.038 26.3318C229.997 26.2913 230.26 26.0081 230.825 25.4621C231.391 24.9362 232.138 24.4306 233.067 23.9856C233.976 23.5204 235.027 23.2575 236.158 23.1563C237.309 23.0552 238.44 23.4193 239.531 24.1878C239.814 24.3699 239.753 24.7137 239.389 25.2194C239.026 25.725 238.501 26.3115 237.814 26.979C237.127 27.6464 236.319 28.3745 235.41 29.1431C234.481 29.9319 233.613 30.6802 232.785 31.4286C231.956 32.1567 231.229 32.8242 230.623 33.4309C229.997 34.0377 229.654 34.5029 229.553 34.8872C229.048 34.9276 228.563 34.6849 228.099 34.159C227.634 33.6332 227.23 32.9455 226.866 32.096C226.503 31.2466 226.18 30.3162 225.937 29.3049C225.675 28.2936 225.533 27.343 225.493 26.4329C225.453 25.543 225.513 24.7744 225.675 24.1272C225.836 23.48 226.16 23.0957 226.664 22.9541C227.028 22.853 227.432 22.9945 227.836 23.3586C228.24 23.7227 228.624 24.1272 228.967 24.5721C229.31 25.0171 229.593 25.4216 229.795 25.8059C229.997 26.1902 230.078 26.3722 230.038 26.3318Z" fill="black"/>
<path d="M272.393 51.2294C271.282 51.553 270.03 52.4632 268.636 53.9801C267.243 55.497 265.728 57.3173 264.092 59.4612C262.456 61.6051 260.759 63.8704 258.961 66.2975C257.164 68.7043 255.366 70.9291 253.528 72.9517C251.69 74.9742 249.852 76.6529 248.014 77.9878C246.176 79.3227 244.378 79.9901 242.641 79.9901C241.449 79.9901 240.581 79.707 240.015 79.1609C239.47 78.6148 239.127 77.6035 238.985 76.1271C238.945 75.6214 239.167 74.7113 239.632 73.3764C240.116 72.0415 240.722 70.4639 241.449 68.6436C242.177 66.8233 242.985 64.8817 243.853 62.7782C244.722 60.695 245.509 58.5915 246.236 56.5083C246.943 54.4251 247.509 52.443 247.893 50.6024C248.276 48.7619 248.418 47.1843 248.276 45.8494C248.236 45.6269 248.297 45.364 248.478 45.0606C248.66 44.7572 248.963 44.5145 249.408 44.2921C249.852 44.0898 250.417 43.9482 251.124 43.8876C251.831 43.8269 252.7 43.8673 253.71 44.0696C254.821 44.2921 255.467 44.9595 255.709 46.0719C255.932 47.1843 255.891 48.5394 255.568 50.1372C255.245 51.7553 254.72 53.5351 253.993 55.4768C253.265 57.4387 252.478 59.4005 251.65 61.3826C250.821 63.3647 250.013 65.2659 249.206 67.1065C248.398 68.947 247.751 70.565 247.246 71.9404C246.741 73.3157 246.479 74.3877 246.479 75.1158C246.479 75.8439 246.842 76.1068 247.59 75.8844C248.418 75.6619 249.468 74.8326 250.761 73.3966C252.053 71.9808 253.467 70.2617 255.002 68.2998C256.537 66.3177 258.174 64.2142 259.89 61.949C261.607 59.7039 263.304 57.6005 264.98 55.679C266.657 53.7576 268.273 52.1396 269.828 50.8451C271.383 49.5507 272.797 48.863 274.029 48.7821C275.685 48.681 276.776 49.126 277.342 50.0968C277.887 51.0676 278.069 52.3418 277.887 53.9194C277.705 55.497 277.241 57.3375 276.473 59.441C275.706 61.5242 274.857 63.6681 273.888 65.8525C272.918 68.0369 271.969 70.1808 270.999 72.264C270.03 74.3472 269.222 76.2282 268.555 77.8462C267.889 79.4845 267.485 80.7992 267.344 81.8104C267.202 82.8217 267.505 83.3274 268.232 83.3274C268.636 83.3274 269.505 82.761 270.777 81.6082C272.07 80.4553 273.605 78.9586 275.382 77.0979C277.18 75.2371 279.119 73.1539 281.24 70.828C283.361 68.502 285.441 66.1559 287.501 63.749C289.562 61.3624 291.521 59.0567 293.359 56.8117C295.197 54.5869 296.732 52.6654 297.964 51.0474C298.186 50.7642 298.449 50.5822 298.752 50.5013C299.055 50.4002 299.297 50.4204 299.479 50.5417C299.661 50.6631 299.762 50.8451 299.762 51.1283C299.762 51.4115 299.6 51.7553 299.277 52.1598C298.994 52.4834 298.408 53.2115 297.52 54.3644C296.631 55.5172 295.52 56.9128 294.187 58.5713C292.854 60.2298 291.359 62.0501 289.703 64.0524C288.047 66.0547 286.31 68.0773 284.512 70.1201C282.694 72.1629 280.856 74.145 278.998 76.0866C277.14 78.008 275.342 79.7272 273.625 81.2239C271.908 82.7206 270.313 83.9341 268.838 84.8443C267.364 85.7544 266.132 86.2196 265.122 86.2196C263.607 86.2196 262.597 85.714 262.092 84.7027C261.587 83.6914 261.446 82.3565 261.648 80.6778C261.85 78.9991 262.334 77.0979 263.062 74.954C263.789 72.8101 264.637 70.6257 265.566 68.4009C266.515 66.1761 267.485 63.9917 268.495 61.8883C269.505 59.7646 270.373 57.9038 271.121 56.306C271.848 54.688 272.353 53.4138 272.635 52.4834C272.938 51.4923 272.858 51.0878 272.393 51.2294Z" fill="black"/>
<path d="M316.748 51.2901C316.345 53.1306 315.496 54.6071 314.244 55.6993C312.971 56.8117 311.497 57.6207 309.76 58.187C308.043 58.7331 306.185 59.077 304.185 59.1781C302.186 59.2994 300.247 59.2388 298.368 58.996C297.035 61.4433 295.884 63.9108 294.934 66.439C293.965 68.9672 293.339 71.2729 293.036 73.3764C292.733 75.4596 292.834 77.199 293.319 78.5744C293.803 79.9497 294.793 80.6981 296.308 80.779C297.782 80.8801 299.742 80.1722 302.226 78.716C304.71 77.2395 307.498 75.1563 310.588 72.446C313.678 69.7358 316.991 66.4795 320.505 62.6569C324.02 58.8342 327.514 54.6476 331.008 50.0968C331.372 49.5912 331.796 49.49 332.281 49.8136C332.766 50.1372 333.008 50.5215 333.008 50.9867C333.008 51.1283 332.624 51.7148 331.837 52.7868C331.049 53.8385 329.978 55.2139 328.605 56.8926C327.231 58.5713 325.615 60.432 323.777 62.4748C321.939 64.5176 319.96 66.5806 317.859 68.6841C315.739 70.7673 313.537 72.7899 311.255 74.7113C308.952 76.6327 306.69 78.3114 304.428 79.7475C302.186 81.1632 299.984 82.2352 297.843 82.9229C295.702 83.6105 293.743 83.7723 291.945 83.4083C290.289 83.0442 289.016 82.215 288.128 80.9206C287.239 79.6261 286.653 78.0485 286.411 76.1675C286.148 74.2866 286.229 72.1831 286.613 69.8572C286.996 67.5312 287.663 65.2053 288.572 62.8591C289.481 60.513 290.652 58.2072 292.086 55.9622C293.5 53.7172 295.136 51.6946 296.934 49.935C298.752 48.1754 300.751 46.7191 302.953 45.5865C305.155 44.4539 307.498 43.8471 309.982 43.7662C311.032 43.7257 312.042 43.8673 312.971 44.1707C313.921 44.4943 314.708 44.9797 315.375 45.6269C316.042 46.2742 316.506 47.0832 316.748 48.0338C317.031 49.0046 317.031 50.0968 316.748 51.2901ZM310.972 46.5371C309.134 46.7191 307.215 47.8113 305.215 49.7732C303.216 51.7553 301.337 54.1419 299.6 56.9533C301.297 57.0948 303.014 57.1151 304.771 57.0139C306.508 56.9128 308.104 56.6297 309.558 56.1442C311.012 55.6588 312.204 54.9509 313.173 54.0408C314.143 53.1306 314.729 51.8969 314.971 50.38C315.112 49.4091 315.052 48.6608 314.789 48.1349C314.527 47.609 314.183 47.2248 313.759 46.9618C313.315 46.7191 312.85 46.5573 312.345 46.5169C311.84 46.4764 311.376 46.4764 310.972 46.5371ZM321.374 30.2555C321.475 30.5791 321.394 30.8623 321.131 31.1252C320.869 31.3882 320.566 31.5904 320.202 31.7522C319.839 31.914 319.455 31.9747 319.071 31.9545C318.687 31.9342 318.364 31.8129 318.142 31.5702L315.173 27.5049C314.062 28.3341 313.012 29.1633 311.961 30.0128C310.931 30.8623 309.861 31.6713 308.75 32.4601C308.427 32.6421 308.124 32.7028 307.861 32.6421C307.578 32.5815 307.376 32.4399 307.215 32.2376C307.053 32.0354 306.993 31.7927 307.033 31.5095C307.074 31.2264 307.235 30.9634 307.518 30.6803C308.75 29.7701 309.982 28.7993 311.194 27.8082C312.406 26.8172 313.638 25.8666 314.87 24.9362C315.476 24.7137 315.92 24.7946 316.244 25.2194C317.294 26.0891 318.243 26.9385 319.112 27.7273C319.98 28.5364 320.728 29.3858 321.374 30.2555Z" fill="black"/>
<path d="M343.753 35.0085C343.107 37.0311 342.137 38.8716 340.865 40.5301C339.572 42.1886 338.199 43.8269 336.724 45.4247C337.048 48.1754 337.451 51.1485 337.936 54.324C338.421 57.4994 338.805 60.6748 339.067 63.8502C341.592 62.94 344.137 62.0096 346.682 61.059C349.227 60.1084 351.651 59.0567 353.953 57.8836C356.256 56.7106 358.336 55.3959 360.215 53.9194C362.093 52.443 363.649 50.7036 364.901 48.681C365.002 48.5394 365.143 48.4788 365.345 48.4788C365.547 48.4788 365.749 48.5394 365.971 48.6608C366.173 48.7822 366.335 48.9237 366.456 49.1058C366.577 49.2878 366.557 49.49 366.416 49.7327C364.941 51.9778 363.184 53.9194 361.104 55.5577C359.043 57.196 356.801 58.632 354.398 59.8657C351.994 61.0995 349.49 62.1917 346.884 63.1423C344.299 64.0929 341.754 65.003 339.269 65.8727C339.451 68.8661 339.411 71.7179 339.168 74.4686C338.906 77.1991 338.28 79.6261 337.25 81.7093C336.219 83.7926 334.705 85.4915 332.745 86.786C330.766 88.0804 328.16 88.7478 324.888 88.7883C323.979 88.7883 323.111 88.5658 322.303 88.1006C321.495 87.6354 320.808 87.0489 320.243 86.3005C319.677 85.5724 319.233 84.7432 318.93 83.8128C318.627 82.8824 318.526 81.9723 318.627 81.0621C318.768 79.2216 319.213 77.5833 319.96 76.1271C320.707 74.6708 321.717 73.3764 322.949 72.2033C324.181 71.0302 325.615 69.9785 327.251 69.0684C328.887 68.1582 330.645 67.2683 332.523 66.439C332.341 63.8704 332.079 61.2006 331.756 58.4702C331.432 55.7397 331.19 53.0497 331.028 50.4406C330.867 47.8113 330.826 45.3438 330.927 42.9976C331.028 40.6515 331.372 38.5682 331.958 36.7479C332.564 34.9276 333.452 33.4512 334.684 32.2983C335.896 31.1455 337.573 30.4578 339.673 30.2353C340.643 30.0937 341.41 30.2151 342.016 30.5791C342.622 30.9432 343.067 31.4084 343.349 31.9545C343.652 32.5006 343.814 33.0871 343.875 33.6737C343.935 34.24 343.895 34.6849 343.753 35.0085ZM325.312 86.2601C327.029 85.9365 328.382 85.269 329.392 84.2173C330.402 83.1858 331.19 81.8711 331.715 80.2935C332.24 78.716 332.564 76.8957 332.685 74.8529C332.806 72.8101 332.786 70.6257 332.644 68.3402C330.988 69.0279 329.433 69.7965 327.999 70.6257C326.565 71.455 325.333 72.3651 324.302 73.3764C323.272 74.3877 322.444 75.5203 321.838 76.7945C321.232 78.0687 320.909 79.4643 320.869 81.0419C320.828 82.7813 321.212 84.1769 322.02 85.1881C322.828 86.159 323.939 86.523 325.312 86.2601ZM339.815 32.3185C338.118 32.5006 337.068 33.5523 336.644 35.4535C336.24 37.3547 336.159 39.802 336.442 42.7954C337.31 41.7841 338.179 40.6515 339.027 39.3773C339.875 38.1031 340.623 36.7075 341.269 35.1299C341.309 35.0288 341.39 34.8265 341.471 34.5029C341.572 34.1793 341.592 33.8557 341.572 33.5119C341.552 33.168 341.431 32.8646 341.188 32.6219C340.966 32.3792 340.522 32.2781 339.815 32.3185Z" fill="black"/>
<path d="M383.342 69.4931C382.837 69.4931 382.494 69.3515 382.312 69.0886C382.13 68.8054 382.049 68.5223 382.11 68.2189C382.15 67.9155 382.312 67.6728 382.554 67.4503C382.796 67.2481 383.16 67.1874 383.625 67.2683C384.736 67.4099 385.826 67.511 386.937 67.5717C388.048 67.6324 389.119 67.6526 390.169 67.6121C390.492 63.1018 391.28 58.3488 392.512 53.3329C393.744 48.3169 395.4 43.3819 397.44 38.5075C399.48 33.6332 401.884 28.9611 404.631 24.471C407.378 19.9809 410.468 16.0369 413.902 12.5986C417.315 9.18048 421.032 6.38936 425.051 4.24545C429.071 2.10154 433.353 0.948681 437.897 0.766651C439.877 0.665523 441.836 0.948686 443.795 1.55545C445.754 2.18245 447.471 3.13304 448.986 4.44771C450.501 5.76237 451.713 7.42086 452.642 9.42319C453.551 11.4255 453.995 13.7717 453.955 16.5021C453.914 18.8888 453.672 21.336 453.268 23.844C452.864 26.352 452.218 28.9004 451.349 31.469C451.491 34.5029 451.289 37.8401 450.763 41.4605C450.238 45.1011 449.41 48.8428 448.279 52.7059C447.148 56.569 445.775 60.4523 444.118 64.3558C442.462 68.2593 440.604 72.0011 438.544 75.5608C436.483 79.1205 434.201 82.4172 431.717 85.4511C429.232 88.4849 426.627 91.0536 423.9 93.1772C421.173 95.3009 418.305 96.8785 415.295 97.9302C412.286 98.982 409.216 99.3056 406.105 98.9011C403.399 98.537 401.116 97.6875 399.258 96.3526C397.4 95.0177 395.885 93.4402 394.713 91.5996C393.542 89.7591 392.633 87.777 391.987 85.6331C391.34 83.4892 390.856 81.4464 390.532 79.4643C390.31 77.9878 390.149 76.4709 390.048 74.8731C389.947 73.2955 389.947 71.6168 390.048 69.8774C387.785 69.9178 385.564 69.7763 383.342 69.4931ZM449.127 37.0109C447.39 40.6919 445.088 44.2718 442.24 47.7304C439.392 51.2092 435.898 54.3846 431.777 57.2769C427.637 60.1691 422.809 62.6771 417.234 64.7603C411.68 66.8436 405.317 68.3605 398.147 69.2706C398.046 70.6864 398.026 72.0618 398.087 73.336C398.127 74.6304 398.208 75.8641 398.289 77.0574C398.43 78.6755 398.713 80.4958 399.157 82.579C399.601 84.642 400.207 86.6444 401.015 88.5456C401.823 90.4468 402.813 92.1255 404.005 93.5413C405.196 94.9571 406.63 95.7863 408.266 96.029C411.296 96.4942 414.366 95.9077 417.457 94.2694C420.547 92.6311 423.556 90.285 426.445 87.1905C429.333 84.1162 432.08 80.4958 434.686 76.3698C437.271 72.2236 439.574 67.8953 441.573 63.3648C443.573 58.8342 445.229 54.2835 446.542 49.7125C447.855 45.1618 448.723 40.9144 449.127 37.0109ZM441.694 17.21C443.937 17.3112 445.775 18.0595 447.209 19.4551C448.622 20.8506 449.693 22.7316 450.38 25.0778C450.602 23.7429 450.804 22.4282 450.965 21.1136C451.127 19.7989 451.228 18.4842 451.268 17.1494C451.369 14.7223 451.006 12.6188 450.238 10.839C449.451 9.07935 448.421 7.62311 447.108 6.49048C445.795 5.35785 444.32 4.52861 442.664 3.98252C441.008 3.43643 439.331 3.17349 437.635 3.21394C433.777 3.35552 430.181 4.42748 426.829 6.42981C423.476 8.43214 420.406 11.0817 417.598 14.3987C414.79 17.7157 412.286 21.5181 410.064 25.8059C407.842 30.1139 405.903 34.604 404.287 39.2963C402.651 43.9887 401.338 48.7012 400.369 53.434C399.379 58.1668 398.733 62.6366 398.41 66.8233C406.307 65.63 413.175 63.8097 419.032 61.3826C424.89 58.9556 429.838 56.1038 433.918 52.8272C437.978 49.5709 441.25 45.9708 443.735 42.0672C446.219 38.1637 448.077 34.1186 449.309 29.9319C449.026 26.8981 448.279 24.4508 447.027 22.6305C445.795 20.7899 443.957 19.7584 441.513 19.536C439.21 19.3539 437.19 19.8596 435.453 21.0529C433.716 22.2462 432.282 23.8036 431.191 25.7452C430.081 27.6666 429.333 29.8106 428.949 32.1163C428.566 34.4422 428.606 36.667 429.131 38.7705C429.131 39.0941 428.929 39.1952 428.505 39.0739C428.101 38.9525 427.637 38.7503 427.152 38.4266C426.667 38.103 426.182 37.739 425.698 37.3142C425.213 36.9097 424.91 36.5254 424.768 36.2018C424.405 34.6849 424.344 33.1275 424.587 31.5095C424.829 29.8915 425.314 28.3543 426.041 26.8576C426.748 25.3609 427.677 23.9654 428.788 22.6912C429.919 21.3967 431.191 20.345 432.605 19.5157C433.837 18.6865 435.271 18.0797 436.908 17.6954C438.523 17.2707 440.119 17.1291 441.694 17.21Z" fill="black"/>
<path d="M494.452 20.0416C494.23 23.035 493.604 25.8868 492.634 28.597C491.645 31.3072 490.413 33.8557 488.958 36.2221C487.484 38.5884 485.868 40.7526 484.07 42.7145C482.273 44.6763 480.475 46.3955 478.637 47.9124C476.799 49.4293 475.022 50.7036 473.305 51.7148C471.588 52.7261 470.053 53.434 468.72 53.8587C467.104 58.005 465.69 61.9894 464.478 65.8525C463.266 69.7156 462.357 73.1539 461.792 76.1676C461.226 79.1812 461.024 81.6284 461.246 83.5094C461.448 85.3904 462.216 86.4219 463.549 86.6039C464.922 86.786 466.781 86.0983 469.083 84.5409C471.406 82.9836 473.991 80.6374 476.839 77.5429C479.687 74.4484 482.697 70.5853 485.868 65.9941C489.039 61.4029 492.129 56.1645 495.159 50.2788C495.442 49.8136 495.725 49.5507 496.028 49.4496C496.331 49.3484 496.573 49.3889 496.795 49.5507C496.997 49.7125 497.118 49.9552 497.179 50.2788C497.219 50.6024 497.118 50.926 496.836 51.2496C495.321 54.4655 493.604 57.6612 491.705 60.7961C489.807 63.9513 487.807 66.9447 485.706 69.7965C483.626 72.6483 481.485 75.2776 479.344 77.6845C477.183 80.0913 475.082 82.1745 473.002 83.8937C470.941 85.6129 468.982 86.9478 467.144 87.8579C465.306 88.7681 463.65 89.1726 462.175 89.031C459.651 88.8085 457.853 87.5748 456.762 85.3702C455.692 83.1656 455.187 80.334 455.288 76.8552C455.389 73.3764 455.954 69.4527 457.005 65.0637C458.055 60.6748 459.449 56.1847 461.165 51.6137C462.882 47.0427 464.862 42.5527 467.084 38.1233C469.305 33.7141 471.628 29.7297 474.032 26.1497C476.435 22.59 478.839 19.6371 481.222 17.2909C483.606 14.9448 485.868 13.5694 487.969 13.1447C489.484 12.8615 490.675 12.9627 491.544 13.4278C492.412 13.893 493.079 14.52 493.503 15.3291C493.947 16.1381 494.21 16.9875 494.331 17.8775C494.452 18.7674 494.493 19.4955 494.452 20.0416ZM488.999 14.8032C488.534 14.9043 487.888 15.4504 487.08 16.5021C486.252 17.5336 485.302 18.909 484.252 20.6484C483.202 22.3675 482.051 24.3901 480.839 26.6756C479.627 28.9813 478.374 31.469 477.122 34.159C475.85 36.849 474.577 39.6604 473.305 42.6133C472.012 45.5663 470.78 48.5192 469.588 51.5126C470.921 50.9058 472.376 50.0766 473.971 49.0046C475.547 47.9327 477.163 46.6382 478.799 45.1415C480.435 43.6448 482.01 41.9863 483.545 40.1458C485.08 38.3053 486.474 36.3232 487.746 34.2197C489.019 32.096 490.069 29.8712 490.958 27.5251C491.826 25.1789 492.372 22.7721 492.614 20.2843C492.614 20.1023 492.594 19.6775 492.554 19.0101C492.513 18.3427 492.372 17.6752 492.17 16.9673C491.968 16.2594 491.604 15.6931 491.099 15.2481C490.574 14.7627 489.887 14.6212 488.999 14.8032Z" fill="black"/>
<path d="M493.422 43.5639C493.826 42.5122 494.452 41.8448 495.28 41.6021C496.109 41.3593 496.937 41.2987 497.785 41.4605C498.633 41.6223 499.421 41.9257 500.128 42.3908C500.835 42.856 501.279 43.2403 501.461 43.5639C501.744 44.0696 501.683 45.0606 501.279 46.5573C500.896 48.054 500.31 49.7732 499.562 51.6946C498.795 53.616 497.947 55.679 496.977 57.8229C496.008 59.9871 495.099 61.9894 494.23 63.8299C493.362 65.6705 492.594 67.2278 491.948 68.5223C491.301 69.8167 490.958 70.565 490.918 70.8078C490.554 71.9202 490.392 72.7292 490.433 73.255C490.473 73.7809 490.695 74.1247 491.079 74.2461C491.463 74.3877 492.029 74.3877 492.735 74.2461C493.442 74.1045 494.311 73.9225 495.321 73.7C496.654 73.4168 498.068 72.8505 499.583 71.9808C501.098 71.1111 502.633 70.0392 504.188 68.765C505.743 67.4907 507.319 66.0952 508.874 64.5176C510.429 62.9602 511.944 61.3422 513.378 59.6837C514.832 58.0252 516.186 56.3667 517.438 54.7082C518.71 53.0497 519.821 51.4923 520.771 50.0159C520.952 49.7327 521.215 49.5911 521.538 49.5709C521.861 49.5507 522.144 49.6114 522.366 49.7732C522.588 49.935 522.73 50.1777 522.77 50.5013C522.811 50.8249 522.669 51.189 522.366 51.6137C519.296 56.0835 516.367 59.8253 513.58 62.8591C510.793 65.8929 508.167 68.3807 505.662 70.3426C503.158 72.3044 500.754 73.8011 498.431 74.8529C496.109 75.9046 493.887 76.6934 491.786 77.199C491.423 77.3001 490.817 77.4013 489.968 77.5428C489.12 77.6844 488.231 77.6642 487.322 77.4822C486.393 77.3002 485.545 76.8552 484.777 76.1473C483.99 75.4394 483.505 74.2663 483.323 72.6685C483.182 71.5156 483.404 70.0392 483.969 68.2189C484.535 66.3986 485.282 64.4569 486.171 62.3939C487.06 60.3309 488.029 58.2275 489.059 56.0835C490.09 53.9396 491.019 51.998 491.806 50.2181C492.614 48.4585 493.18 46.9618 493.523 45.7281C493.927 44.5145 493.867 43.7864 493.422 43.5639ZM502.774 26.3318C502.734 26.2913 502.996 26.0081 503.562 25.4621C504.127 24.9362 504.875 24.4306 505.804 23.9856C506.713 23.5204 507.763 23.2575 508.894 23.1563C510.045 23.0552 511.176 23.4193 512.267 24.1878C512.55 24.3699 512.489 24.7137 512.126 25.2194C511.762 25.725 511.237 26.3115 510.55 26.979C509.864 27.6464 509.056 28.3745 508.147 29.1431C507.218 29.9319 506.349 30.6802 505.521 31.4286C504.693 32.1567 503.966 32.8242 503.36 33.4309C502.734 34.0377 502.39 34.5029 502.289 34.8872C501.784 34.9276 501.3 34.6849 500.835 34.159C500.37 33.6332 499.966 32.9455 499.603 32.096C499.239 31.2466 498.916 30.3162 498.674 29.3049C498.411 28.2936 498.27 27.343 498.229 26.4329C498.189 25.543 498.25 24.7744 498.411 24.1272C498.573 23.48 498.896 23.0957 499.401 22.9541C499.764 22.853 500.168 22.9945 500.572 23.3586C500.976 23.7227 501.36 24.1272 501.703 24.5721C502.047 25.0171 502.33 25.4216 502.532 25.8059C502.754 26.1902 502.835 26.3722 502.774 26.3318Z" fill="black"/>
<path d="M516.69 45.364C516.69 45.2224 517.175 45.0404 518.165 44.7775C519.155 44.5347 520.205 44.3527 521.336 44.2516C522.467 44.1505 523.416 44.2314 524.224 44.4943C525.032 44.7572 525.275 45.3033 524.951 46.1932C524.911 46.3348 524.689 46.982 524.305 48.1551C523.921 49.3282 523.437 50.8451 522.891 52.7059C522.346 54.5666 521.7 56.6498 520.993 58.9556C520.286 61.2613 519.599 63.5872 518.953 65.9536C518.306 68.32 517.7 70.5853 517.135 72.7696C516.569 74.954 516.105 76.8552 515.781 78.453C515.458 80.071 515.317 81.2846 515.337 82.1138C515.357 82.9431 515.6 83.1656 516.064 82.8015C517.619 81.6082 519.195 80.152 520.75 78.4126C522.305 76.6934 523.82 74.8124 525.295 72.7494C526.769 70.7066 528.183 68.5425 529.536 66.2772C530.89 64.012 532.142 61.7669 533.293 59.5421C532.001 57.7016 531.011 55.5577 530.324 53.0901C529.637 50.6226 529.496 48.0135 529.92 45.2629C530.142 43.6044 530.668 42.1077 531.475 40.7526C532.283 39.3975 533.192 38.2648 534.222 37.3749C535.253 36.485 536.323 35.858 537.434 35.5141C538.545 35.1703 539.514 35.1905 540.363 35.5748C541.211 35.9591 541.857 36.7681 542.282 37.9614C542.726 39.1548 542.807 40.8335 542.524 42.9976C542.302 44.919 541.635 47.3259 540.524 50.1777C539.413 53.0295 538.04 56.0431 536.384 59.2185C536.929 60.0882 537.616 60.7759 538.444 61.2815C539.272 61.7871 540.282 62.0905 541.474 62.1714C542.807 62.2726 544.16 62.0298 545.533 61.4838C546.907 60.9377 548.22 60.2096 549.452 59.2994C550.684 58.4095 551.876 57.4184 553.007 56.3262C554.138 55.2543 555.107 54.2026 555.936 53.2317C556.764 52.2407 557.43 51.3912 557.976 50.6429C558.501 49.9147 558.844 49.4496 558.965 49.2675C559.329 48.6608 559.672 48.4787 559.995 48.681C560.319 48.8832 560.561 49.308 560.763 49.9552C560.803 50.1777 560.581 50.6833 560.117 51.4721C559.632 52.2609 558.925 53.1913 558.016 54.2632C557.087 55.3352 556.016 56.4881 554.784 57.6814C553.552 58.8747 552.179 59.9871 550.684 60.9984C549.189 62.0096 547.614 62.8591 545.958 63.5063C544.301 64.1737 542.625 64.4772 540.928 64.4367C539.918 64.4367 538.929 64.194 537.939 63.6883C536.949 63.1827 536 62.495 535.071 61.6051C533.778 64.0524 532.405 66.4592 530.91 68.8459C529.415 71.2325 527.88 73.4977 526.325 75.6012C524.77 77.7249 523.194 79.6261 521.639 81.325C520.084 83.024 518.569 84.4195 517.135 85.5319C515.68 86.6443 514.327 87.3522 513.075 87.6758C511.802 87.9994 510.712 87.8174 509.803 87.1298C508.429 86.1185 507.601 84.6623 507.359 82.7408C507.116 80.8396 507.217 78.6553 507.662 76.2282C508.126 73.8011 508.813 71.1718 509.722 68.4009C510.631 65.6098 511.6 62.8389 512.59 60.0477C513.58 57.2768 514.469 54.6071 515.236 52.0586C516.024 49.5305 516.509 47.2854 516.69 45.364ZM534.606 45.8494C534.384 47.5079 534.283 49.2473 534.323 51.0474C534.364 52.8677 534.606 54.5464 535.01 56.124C536.343 53.3126 537.454 50.7642 538.343 48.4383C539.232 46.1123 539.817 44.2718 540.1 42.8763C540.423 41.0762 540.342 39.802 539.898 39.0536C539.434 38.2851 538.868 38.0423 538.181 38.2851C537.495 38.548 536.788 39.2963 536.04 40.5705C535.313 41.8245 534.828 43.5842 534.606 45.8494Z" fill="black"/>
<path d="M577.992 51.2901C577.588 53.1306 576.74 54.6071 575.487 55.6993C574.215 56.8117 572.741 57.6207 571.003 58.187C569.287 58.7331 567.428 59.0769 565.429 59.1781C563.429 59.2994 561.49 59.2387 559.612 58.996C558.279 61.4433 557.127 63.9108 556.178 66.439C555.209 68.9672 554.582 71.2729 554.279 73.3764C553.976 75.4596 554.077 77.199 554.562 78.5743C555.047 79.9497 556.037 80.698 557.552 80.7789C559.026 80.8801 560.985 80.1722 563.47 78.7159C565.954 77.2395 568.741 75.1562 571.832 72.446C574.922 69.7358 578.234 66.4795 581.749 62.6569C585.263 58.8342 588.758 54.6475 592.252 50.0968C592.616 49.5912 593.04 49.49 593.524 49.8136C594.009 50.1372 594.252 50.5215 594.252 50.9867C594.252 51.1283 593.868 51.7148 593.08 52.7868C592.292 53.8385 591.222 55.2139 589.848 56.8926C588.475 58.5713 586.859 60.432 585.021 62.4748C583.183 64.5176 581.204 66.5806 579.103 68.6841C576.982 70.7673 574.781 72.7898 572.498 74.7113C570.196 76.6327 567.933 78.3114 565.671 79.7474C563.429 81.1632 561.228 82.2352 559.087 82.9228C556.946 83.6105 554.986 83.7723 553.189 83.4082C551.532 83.0442 550.26 82.215 549.371 80.9205C548.483 79.6261 547.897 78.0485 547.654 76.1675C547.392 74.2865 547.473 72.1831 547.856 69.8571C548.24 67.5312 548.907 65.2053 549.816 62.8591C550.725 60.5129 551.896 58.2072 553.33 55.9622C554.744 53.7172 556.38 51.6946 558.178 49.935C559.995 48.1754 561.995 46.7191 564.197 45.5865C566.398 44.4539 568.741 43.8471 571.226 43.7662C572.276 43.7257 573.286 43.8673 574.215 44.1707C575.164 44.4943 575.952 44.9797 576.619 45.627C577.285 46.2742 577.75 47.0832 577.992 48.0338C578.275 49.0046 578.275 50.0968 577.992 51.2901ZM572.215 46.5371C570.377 46.7191 568.458 47.8113 566.459 49.7732C564.459 51.7553 562.581 54.1419 560.844 56.9533C562.54 57.0948 564.257 57.1151 566.015 57.0139C567.752 56.9128 569.347 56.6297 570.801 56.1442C572.256 55.6588 573.447 54.9509 574.417 54.0408C575.386 53.1306 575.972 51.8969 576.215 50.38C576.356 49.4091 576.295 48.6608 576.033 48.1349C575.77 47.609 575.427 47.2248 575.003 46.9618C574.558 46.7191 574.094 46.5573 573.589 46.5169C573.084 46.4764 572.619 46.4764 572.215 46.5371Z" fill="black"/>
<path d="M591.626 43.5639C592.03 42.5122 592.656 41.8448 593.484 41.6021C594.312 41.3593 595.14 41.2987 595.989 41.4605C596.837 41.6223 597.625 41.9257 598.332 42.3908C599.038 42.856 599.483 43.2403 599.665 43.5639C599.947 44.0696 599.887 45.0606 599.483 46.5573C599.099 48.054 598.513 49.7732 597.766 51.6946C596.998 53.616 596.15 55.679 595.181 57.8229C594.211 59.9871 593.302 61.9894 592.434 63.8299C591.565 65.6705 590.798 67.2278 590.151 68.5223C589.505 69.8167 589.162 70.565 589.121 70.8078C588.758 71.9202 588.596 72.7292 588.636 73.255C588.677 73.7809 588.899 74.1247 589.283 74.2461C589.666 74.3877 590.232 74.3877 590.939 74.2461C591.646 74.1045 592.514 73.9225 593.524 73.7C594.857 73.4168 596.271 72.8505 597.786 71.9808C599.301 71.1111 600.836 70.0392 602.391 68.765C603.947 67.4907 605.522 66.0952 607.077 64.5176C608.633 62.9602 610.148 61.3422 611.582 59.6837C613.036 58.0252 614.389 56.3667 615.641 54.7082C616.914 53.0497 618.025 51.4923 618.974 50.0159C619.156 49.7327 619.418 49.5911 619.742 49.5709C620.065 49.5507 620.348 49.6114 620.57 49.7732C620.792 49.935 620.933 50.1777 620.974 50.5013C621.014 50.8249 620.873 51.189 620.57 51.6137C617.5 56.0835 614.571 59.8253 611.784 62.8591C608.996 65.8929 606.37 68.3807 603.866 70.3426C601.361 72.3044 598.958 73.8011 596.635 74.8529C594.312 75.9046 592.09 76.6934 589.99 77.199C589.626 77.3001 589.02 77.4013 588.172 77.5428C587.323 77.6844 586.435 77.6642 585.526 77.4822C584.597 77.3002 583.748 76.8552 582.981 76.1473C582.193 75.4394 581.708 74.2663 581.527 72.6685C581.385 71.5156 581.607 70.0392 582.173 68.2189C582.739 66.3986 583.486 64.4569 584.375 62.3939C585.263 60.3309 586.233 58.2275 587.263 56.0835C588.293 53.9396 589.222 51.998 590.01 50.2181C590.818 48.4585 591.383 46.9618 591.727 45.7281C592.151 44.5145 592.09 43.7864 591.626 43.5639ZM600.998 26.3318C600.957 26.2913 601.22 26.0081 601.785 25.4621C602.351 24.9362 603.098 24.4306 604.027 23.9856C604.936 23.5204 605.987 23.2575 607.118 23.1563C608.269 23.0552 609.4 23.4193 610.491 24.1878C610.774 24.3699 610.713 24.7137 610.349 25.2194C609.986 25.725 609.461 26.3115 608.774 26.979C608.087 27.6464 607.279 28.3745 606.37 29.1431C605.441 29.9319 604.573 30.6802 603.745 31.4286C602.917 32.1567 602.189 32.8242 601.583 33.4309C600.957 34.0377 600.614 34.5029 600.513 34.8872C600.008 34.9276 599.523 34.6849 599.059 34.159C598.594 33.6332 598.19 32.9455 597.827 32.096C597.463 31.2466 597.14 30.3162 596.897 29.3049C596.635 28.2936 596.493 27.343 596.453 26.4329C596.413 25.543 596.473 24.7744 596.635 24.1272C596.796 23.48 597.12 23.0957 597.625 22.9541C597.988 22.853 598.392 22.9945 598.796 23.3586C599.2 23.7227 599.584 24.1272 599.927 24.5721C600.271 25.0171 600.553 25.4216 600.755 25.8059C600.957 26.1902 601.038 26.3722 600.998 26.3318Z" fill="black"/>
<path d="M633.638 46.6787C634.83 46.9012 635.577 47.6293 635.88 48.8226C636.183 50.0159 636.183 51.5328 635.88 53.3329C635.577 55.1532 635.052 57.196 634.305 59.4612C633.537 61.7467 632.729 64.0524 631.82 66.3986C630.932 68.7448 630.023 71.0707 629.134 73.3562C628.245 75.6619 627.498 77.7452 626.892 79.6059C626.286 81.4667 625.922 83.024 625.761 84.2578C625.599 85.4916 625.801 86.2803 626.346 86.604C627.215 87.1096 628.447 86.7455 630.023 85.532C631.598 84.3185 633.355 82.5993 635.294 80.3542C637.213 78.1294 639.213 75.5406 641.293 72.6281C643.353 69.7156 645.313 66.8031 647.151 63.9108C648.989 61.0186 650.625 58.2881 652.039 55.6993C653.453 53.1306 654.503 51.0879 655.129 49.5709C655.23 49.3889 655.371 49.2473 655.573 49.126C655.775 49.0046 655.998 48.9642 656.22 48.9844C656.442 49.0046 656.664 49.1057 656.846 49.2878C657.028 49.4698 657.129 49.7732 657.129 50.1777C657.129 50.3597 656.826 51.0676 656.24 52.3216C655.634 53.5554 654.826 55.133 653.796 57.0139C652.766 58.8949 651.534 61.0186 650.12 63.385C648.706 65.7514 647.171 68.138 645.535 70.5651C643.899 72.9719 642.202 75.3585 640.404 77.7047C638.607 80.0509 636.809 82.1341 634.991 83.9746C633.174 85.8152 631.396 87.3118 629.659 88.4647C627.922 89.6175 626.286 90.2243 624.771 90.3255C622.792 90.467 621.378 90.0221 620.509 88.9906C619.641 87.959 619.136 86.5433 619.035 84.7432C618.914 82.9431 619.136 80.9003 619.661 78.5744C620.186 76.2484 620.873 73.8416 621.701 71.3741C622.529 68.8863 623.418 66.4188 624.387 63.9513C625.357 61.4838 626.225 59.259 627.033 57.2364C627.841 55.2139 628.488 53.5149 628.992 52.1598C629.497 50.8047 629.679 49.935 629.538 49.5709C629.356 48.9642 629.134 48.681 628.851 48.7012C628.568 48.7215 628.124 48.8833 627.478 49.1866C626.831 49.49 625.943 49.8743 624.832 50.3193C623.701 50.7845 622.206 51.1688 620.327 51.4924C618.853 51.7149 617.58 51.5328 616.51 50.9463C615.439 50.3395 614.591 49.5305 613.965 48.499C613.339 47.4675 612.975 46.2944 612.854 45.0202C612.733 43.7257 612.894 42.492 613.298 41.2987C613.702 40.1054 614.409 39.0536 615.399 38.1233C616.389 37.2131 617.702 36.6063 619.358 36.3232C620.832 36.04 621.943 36.303 622.731 37.0917C623.519 37.8805 624.004 38.9121 624.206 40.1863C624.407 41.4807 624.367 42.8965 624.064 44.4539C623.761 46.0112 623.276 47.4472 622.59 48.7215C623.418 48.5394 624.246 48.2765 625.094 47.9529C625.943 47.6293 626.831 47.3259 627.74 47.063C628.649 46.7798 629.619 46.5978 630.608 46.5169C631.558 46.436 632.588 46.4764 633.638 46.6787ZM619.6 38.4671C618.489 38.6491 617.702 39.2963 617.197 40.3885C616.692 41.5009 616.47 42.674 616.51 43.9482C616.55 45.2224 616.874 46.3551 617.479 47.4068C618.085 48.4383 618.934 48.9844 620.024 49.0248C620.348 48.4181 620.731 47.5079 621.196 46.2742C621.661 45.0404 621.963 43.8066 622.125 42.5931C622.287 41.3796 622.206 40.3481 621.883 39.4986C621.539 38.6087 620.792 38.2851 619.6 38.4671Z" fill="black"/>
<path d="M673.449 46.4562C673.853 45.4045 674.479 44.737 675.307 44.4943C676.135 44.2516 676.983 44.1909 677.852 44.3527C678.72 44.5145 679.508 44.8179 680.195 45.2831C680.882 45.7483 681.326 46.1326 681.508 46.4562C681.791 46.9618 681.71 48.1349 681.306 49.9754C680.902 51.816 680.296 53.9599 679.508 56.4274C678.72 58.8949 677.832 61.504 676.822 64.2547C675.812 67.0054 674.863 69.574 673.954 71.9202C673.065 74.2663 672.277 76.2484 671.611 77.8867C670.944 79.525 670.581 80.4553 670.54 80.6778C670.177 81.7902 670.055 82.5992 670.156 83.1251C670.278 83.651 670.54 83.9544 670.985 84.015C671.429 84.0757 671.994 83.9746 672.701 83.6712C673.408 83.3678 674.196 82.9431 675.085 82.397C676.378 81.5677 677.791 80.3542 679.347 78.7362C680.902 77.1181 682.518 75.318 684.194 73.3157C685.871 71.3134 687.567 69.1897 689.264 66.9447C690.961 64.6996 692.597 62.5153 694.152 60.3916C695.707 58.2679 697.161 56.306 698.495 54.4857C699.828 52.6654 700.959 51.189 701.868 50.0361C702.09 49.7529 702.352 49.5911 702.635 49.5507C702.918 49.5102 703.14 49.5507 703.322 49.6923C703.504 49.8339 703.605 50.0563 703.605 50.3395C703.605 50.6429 703.443 51.0271 703.12 51.4721C701.383 53.8587 699.585 56.3667 697.747 58.9556C695.909 61.5444 694.051 64.1131 692.173 66.6413C690.294 69.1695 688.416 71.5965 686.557 73.9225C684.699 76.2484 682.881 78.3317 681.124 80.1722C679.347 82.0127 677.65 83.5499 676.034 84.7634C674.398 85.9769 672.883 86.7455 671.449 87.0691C671.086 87.1702 670.48 87.2714 669.631 87.4129C668.783 87.5545 667.894 87.5343 666.985 87.3523C666.076 87.1702 665.208 86.7253 664.44 86.0174C663.653 85.3095 663.168 84.1364 662.986 82.5386C662.804 81.3453 663.026 79.6059 663.673 77.3002C664.319 74.9945 665.147 72.4663 666.157 69.7156C665.046 71.0909 663.774 72.5471 662.34 74.1045C660.885 75.6417 659.391 77.0372 657.836 78.271C656.28 79.5047 654.664 80.516 653.008 81.2644C651.352 82.0127 649.776 82.3161 648.262 82.1341C646.605 81.952 645.353 80.961 644.505 79.1407C643.656 77.3204 643.232 75.1158 643.273 72.5269C643.293 69.9381 643.757 67.1267 644.646 64.1536C645.535 61.1602 646.868 58.369 648.645 55.7397C650.403 53.1104 652.624 50.9058 655.291 49.126C657.957 47.3259 661.047 46.3146 664.582 46.0921C666.056 45.991 667.369 46.0719 668.541 46.3348C669.712 46.5978 670.621 46.8 671.267 46.982C671.772 47.1236 672.116 47.3461 672.297 47.6293C672.479 47.9326 672.54 48.236 672.499 48.5192C672.459 48.8226 672.318 49.0451 672.116 49.2069C671.914 49.3687 671.651 49.3484 671.328 49.1664C671.187 49.126 670.924 48.9844 670.5 48.7821C670.096 48.5799 669.571 48.3978 668.945 48.236C668.318 48.0742 667.652 47.9731 666.905 47.9326C666.177 47.8922 665.41 47.9933 664.622 48.2765C662.421 49.0046 660.441 50.2586 658.704 51.998C656.967 53.7374 655.493 55.7195 654.301 57.9038C653.109 60.0882 652.2 62.3535 651.574 64.6996C650.948 67.0458 650.625 69.1897 650.605 71.1112C650.584 73.0326 650.887 74.6304 651.493 75.8642C652.119 77.0979 653.069 77.7047 654.361 77.6642C655.331 77.6642 656.422 77.199 657.674 76.2889C658.906 75.3787 660.158 74.2663 661.431 72.9719C662.703 71.6775 663.895 70.3223 665.046 68.8661C666.198 67.4099 667.167 66.1559 667.935 65.1041C668.763 62.8591 669.591 60.6545 670.419 58.5106C671.247 56.3667 671.954 54.4453 672.52 52.7261C673.085 51.0069 673.489 49.5911 673.691 48.4787C673.893 47.3663 673.812 46.6989 673.449 46.4562Z" fill="black"/>
</svg>
