<svg width="326" height="62" viewBox="0 0 326 62" fill="none" xmlns="http://www.w3.org/2000/svg">
<path d="M11.3282 30.1052C11.2954 30.3178 11.2791 30.5304 11.2791 30.7266C11.2627 30.9229 11.2627 31.1191 11.2627 31.3317C11.2627 32.362 11.3938 33.245 11.6725 33.9646C11.9512 34.6841 12.3447 35.2729 12.8529 35.7307C13.3611 36.1886 13.9841 36.5157 14.7054 36.7119C15.4268 36.9082 16.2465 37.0226 17.1482 37.0226C18.0499 37.0226 18.9024 36.8918 19.7221 36.6465C20.5254 36.4012 21.2468 36.0251 21.8534 35.5181C22.4599 35.0112 22.9518 34.4061 23.3124 33.6539C23.6731 32.918 23.8535 32.0512 23.8535 31.0864C23.8535 30.465 23.7715 29.909 23.6075 29.3857C23.4436 28.8787 23.2141 28.4045 22.919 27.9629C22.6239 27.5377 22.2796 27.1289 21.8698 26.7691C21.4599 26.4094 21.0173 26.0659 20.5418 25.7389C20.0664 25.4118 19.5582 25.1011 19.0335 24.8067C18.5089 24.5124 17.9679 24.218 17.4269 23.9073C16.8531 23.5966 16.2793 23.2859 15.7219 22.9588C15.1481 22.6317 14.6071 22.2883 14.0989 21.9122C13.5743 21.5361 13.0988 21.1436 12.6562 20.7021C12.2135 20.2769 11.8201 19.7863 11.5086 19.263C11.1807 18.7397 10.9348 18.151 10.738 17.5132C10.5577 16.8754 10.4594 16.1722 10.4594 15.4036C10.4594 14.4388 10.5741 13.5393 10.82 12.7217C11.0659 11.8876 11.4102 11.1354 11.8529 10.4322C12.2955 9.74535 12.8201 9.12392 13.4431 8.56791C14.0661 8.0119 14.7383 7.57038 15.4596 7.19425C16.1973 6.81813 16.9679 6.52376 17.804 6.34387C18.6401 6.14763 19.4926 6.04952 20.3615 6.04952C20.7549 6.04952 21.1812 6.08223 21.6402 6.13129C22.0993 6.18035 22.5419 6.2621 23.001 6.36022C23.46 6.45834 23.8863 6.57282 24.3125 6.72C24.7388 6.86718 25.0994 7.01436 25.4109 7.2106C25.7224 7.39049 25.9847 7.58672 26.1814 7.81567C26.3782 8.04461 26.4601 8.25722 26.4601 8.50252C26.4601 8.76417 26.4601 9.09123 26.4438 9.48371C26.4274 9.87619 26.4273 10.3341 26.411 10.8247C26.3946 11.3153 26.3782 11.8713 26.3454 12.4764C26.3126 13.0651 26.2798 13.7028 26.247 14.357L24.8699 14.2916C24.9027 13.9645 24.9191 13.6538 24.9191 13.3594C24.9191 12.46 24.7879 11.675 24.5092 10.9882C24.2469 10.3014 23.8698 9.729 23.378 9.27111C22.8862 8.81322 22.3124 8.46979 21.6238 8.24085C20.9353 8.0119 20.1811 7.89743 19.345 7.89743C18.5089 7.89743 17.722 8.02826 17.0006 8.30626C16.2793 8.58427 15.6563 8.97675 15.1317 9.46734C14.6071 9.95794 14.1972 10.5467 13.8857 11.2335C13.5906 11.9203 13.4431 12.6562 13.4431 13.4739C13.4431 14.1444 13.5251 14.7331 13.7054 15.2728C13.8857 15.8124 14.1153 16.303 14.4268 16.7609C14.7382 17.2188 15.0989 17.6276 15.5088 18.0038C15.935 18.3799 16.3777 18.7233 16.8695 19.0667C17.3613 19.3938 17.8859 19.7209 18.427 20.0152C18.968 20.3096 19.5254 20.6203 20.0828 20.9146C20.6566 21.209 21.2304 21.5197 21.7878 21.8468C22.3616 22.1575 22.9026 22.5009 23.4108 22.8607C23.9354 23.2205 24.4109 23.613 24.8535 24.0381C25.2961 24.4633 25.6732 24.9212 26.0011 25.4445C26.329 25.9515 26.5749 26.5238 26.7716 27.1453C26.952 27.7667 27.0503 28.4535 27.0503 29.2058C27.0503 30.4486 26.8864 31.5443 26.5421 32.5091C26.1978 33.474 25.7388 34.308 25.165 35.0275C24.5912 35.7471 23.9354 36.3358 23.1977 36.8264C22.4599 37.317 21.6894 37.7095 20.8861 38.0038C20.0828 38.2982 19.2794 38.5108 18.4761 38.658C17.6728 38.7888 16.9351 38.8542 16.2465 38.8542C15.3448 38.8542 14.4923 38.7888 13.7054 38.6743C12.9185 38.5435 12.2135 38.3963 11.6233 38.1837C11.0331 37.9875 10.5577 37.7585 10.2134 37.4969C9.86916 37.2352 9.7052 36.9736 9.7052 36.6956C9.7052 36.0905 9.7216 35.2238 9.77078 34.079C9.81996 32.9507 9.88555 31.5934 9.96752 30.0398L11.3282 30.1052Z" fill="#BB4848"/>
<path d="M36.9198 8.68239C36.5427 10.3995 36.2148 12.182 35.9525 14.0299C35.6902 15.8615 35.4771 17.6767 35.2968 19.4756C35.723 19.4919 36.1329 19.5083 36.5427 19.5083C36.9526 19.5246 37.3296 19.5246 37.6739 19.541C38.0182 19.5573 38.3461 19.5573 38.6248 19.5573C38.9035 19.5573 39.1494 19.5573 39.3461 19.5573C40.1658 19.5573 40.8544 19.5083 41.379 19.4101C41.4282 19.5573 41.461 19.7045 41.4938 19.8353C41.5266 19.9661 41.5266 20.0806 41.5266 20.1951C41.5266 20.5876 41.3626 20.8492 41.0347 20.9637C40.7069 21.0782 40.215 21.1436 39.592 21.1436C38.9855 21.1436 38.3133 21.1109 37.5755 21.0291C36.8378 20.9637 36.0181 20.8819 35.1328 20.8329C35.0344 21.7977 34.9525 22.7462 34.8869 23.6783C34.8213 24.5941 34.7721 25.4609 34.723 26.2785C34.6738 27.0962 34.6574 27.8484 34.641 28.5516C34.6246 29.2548 34.6082 29.8599 34.6082 30.3832C34.6082 31.348 34.6574 32.2148 34.7557 32.9834C34.8541 33.752 35.0344 34.3898 35.2803 34.9294C35.5426 35.4527 35.8869 35.8615 36.3296 36.1559C36.7722 36.4339 37.346 36.5811 38.0182 36.5811C38.51 36.5811 39.051 36.4993 39.6576 36.3194C40.2642 36.1396 40.9528 35.8779 41.7233 35.4854C41.9692 35.7307 42.1168 36.0251 42.1495 36.3849C41.5921 36.761 41.0183 37.088 40.4445 37.3988C39.8707 37.7095 39.3133 37.9711 38.7559 38.1837C38.1985 38.3963 37.6575 38.5762 37.1493 38.6907C36.6247 38.8051 36.1328 38.8705 35.6738 38.8705C35.0672 38.8705 34.5098 38.7561 34.0016 38.5435C33.4934 38.3145 33.0671 37.9221 32.6901 37.3661C32.313 36.81 32.0343 36.0414 31.8375 35.0766C31.6408 34.1117 31.5261 32.9016 31.5261 31.4298C31.5261 30.6121 31.5425 29.7454 31.5752 28.8787C31.608 27.9956 31.6408 27.1125 31.69 26.2131C31.7392 25.3137 31.7884 24.4142 31.8703 23.5148C31.9359 22.6154 32.0179 21.7323 32.1163 20.8656C31.3949 20.8819 30.7227 20.8983 30.1161 20.9474C29.5096 20.9964 28.9686 21.0782 28.5423 21.1927C28.5095 21.1436 28.5095 21.0782 28.5095 20.9964C28.5095 20.8002 28.6079 20.6203 28.7882 20.4568C28.9686 20.2932 29.2309 20.1297 29.5588 19.9989C29.8866 19.868 30.2965 19.7536 30.7555 19.6554C31.2146 19.5573 31.7228 19.5083 32.2802 19.4592C32.4933 17.5622 32.7064 15.7634 32.9524 14.079C33.1819 12.3946 33.4278 10.8901 33.6573 9.56547C33.7065 9.33653 33.7885 9.14027 33.9032 8.97674C34.018 8.82956 34.1655 8.69874 34.3295 8.61697C34.4934 8.51885 34.6738 8.4698 34.8541 8.42074C35.0508 8.38803 35.2312 8.37167 35.4115 8.37167C35.7066 8.37167 35.9853 8.40438 36.2312 8.46979C36.4771 8.46979 36.7066 8.56792 36.9198 8.68239Z" fill="#BB4848"/>
<path d="M49.0515 21.0618C49.0515 21.6833 49.0351 22.3374 48.986 23.0406C48.9368 23.7438 48.8876 24.4633 48.8384 25.1829C48.7728 25.9024 48.7236 26.6383 48.6417 27.3578C48.5597 28.0774 48.5105 28.7642 48.4449 29.402C48.3794 30.0398 48.3302 30.6449 48.2974 31.1845C48.2482 31.7242 48.2318 32.1821 48.2318 32.5418C48.2318 33.6212 48.4285 34.4061 48.8384 34.9131C49.2483 35.42 49.7893 35.6653 50.4778 35.6653C51.2484 35.6653 52.0353 35.2565 52.855 34.4225C53.6583 33.5885 54.4452 32.3783 55.183 30.7757C55.9207 29.1731 56.5437 27.3906 57.0683 25.3954C57.5929 23.4003 57.9208 21.2581 58.0684 18.9522L60.9538 18.5925L61.1669 18.6088C61.0849 19.4756 61.003 20.3914 60.9374 21.3562C60.8718 22.321 60.8062 23.2859 60.757 24.2507C60.7079 25.2156 60.6587 26.1641 60.6423 27.0962C60.6095 28.0283 60.6095 28.8787 60.6095 29.6637C60.6095 31.1355 60.6915 32.3456 60.8718 33.2941C61.0522 34.2262 61.2653 34.9785 61.544 35.5181C61.8227 36.0578 62.1342 36.4339 62.4784 36.6302C62.8227 36.8264 63.1834 36.9409 63.5441 36.9409C63.7572 36.9409 63.9539 36.9082 64.1671 36.8591C64.3638 36.81 64.5605 36.7446 64.7409 36.6629C64.9212 36.5811 65.0851 36.4993 65.2327 36.4176C65.3802 36.3195 65.5114 36.2377 65.6262 36.1723L66.0688 36.7937C65.8065 37.0717 65.5114 37.317 65.1671 37.5623C64.8228 37.8076 64.4786 38.0038 64.1015 38.1837C63.7244 38.3636 63.331 38.4944 62.9211 38.5926C62.5112 38.6907 62.1014 38.7397 61.6751 38.7397C61.1505 38.7397 60.6423 38.6416 60.1341 38.429C59.6422 38.2164 59.1996 37.873 58.8225 37.3824C58.4455 36.8918 58.134 36.2377 57.9044 35.42C57.6749 34.6024 57.5602 33.5885 57.5602 32.3783C57.5602 31.9858 57.5766 31.5933 57.593 31.2009C57.6094 30.8084 57.6421 30.3832 57.6749 29.9417C57.7077 29.5001 57.7569 29.0259 57.8225 28.5026C57.888 27.9956 57.9536 27.4233 58.0356 26.8018L57.888 26.7691C57.2651 29.0422 56.5929 30.9556 55.8716 32.4928C55.1502 34.03 54.4124 35.2728 53.6419 36.2213C52.8878 37.1698 52.1173 37.8403 51.3631 38.2491C50.5926 38.658 49.8712 38.8542 49.1827 38.8542C48.6581 38.8542 48.1662 38.7725 47.6908 38.5926C47.2154 38.4127 46.7891 38.1183 46.412 37.7258C46.035 37.317 45.7399 36.7937 45.5103 36.1232C45.2808 35.4527 45.1825 34.6514 45.1825 33.6702C45.1825 33.0324 45.2153 32.2965 45.2972 31.4625C45.3628 30.6285 45.4448 29.7291 45.5431 28.7806C45.6251 27.8321 45.7071 26.8509 45.7891 25.837C45.8546 24.8231 45.9038 23.8255 45.9038 22.828C45.9038 22.4355 45.8874 22.0921 45.8546 21.7977C45.8218 21.5034 45.7727 21.2744 45.6743 21.0782C45.5759 20.8819 45.4448 20.7511 45.2644 20.653C45.0841 20.5549 44.8382 20.5222 44.5267 20.5222C44.2152 20.5222 43.8217 20.5712 43.3135 20.653C42.8217 20.7511 42.2971 20.8656 41.756 21.0128L41.5593 20.0316C42.3135 19.7699 43.002 19.541 43.6414 19.3447C44.2808 19.1485 44.8546 18.985 45.3628 18.8541C45.871 18.7233 46.2973 18.6252 46.6416 18.5761C46.9858 18.5107 47.2481 18.478 47.4121 18.478C47.74 18.478 48.0023 18.5434 48.2154 18.6579C48.4285 18.7724 48.5925 18.9523 48.7236 19.1812C48.8548 19.4101 48.9368 19.6882 48.986 19.9989C49.0187 20.2932 49.0515 20.653 49.0515 21.0618Z" fill="#BB4848"/>
<path d="M86.4632 1.5687C86.1353 3.87452 85.8239 6.22938 85.5288 8.64967C85.2337 11.07 84.9713 13.4739 84.7418 15.8615C84.5123 18.2654 84.332 20.6203 84.2008 22.9425C84.0697 25.2646 84.0041 27.4887 84.0041 29.631C84.0041 30.6612 84.0205 31.5443 84.0369 32.2802C84.0533 33.0161 84.1025 33.6375 84.1517 34.1445C84.2008 34.6514 84.2664 35.0602 84.3484 35.3546C84.4304 35.649 84.5451 35.8779 84.6763 36.0414C84.8074 36.205 84.955 36.3194 85.1353 36.3685C85.3157 36.4176 85.5124 36.4503 85.7419 36.4503C86.1845 36.4503 86.6436 36.3849 87.1518 36.254C87.66 36.1232 88.1682 35.9433 88.6929 35.698L88.9552 36.4012C88.6273 36.6629 88.2174 36.9245 87.7256 37.2025C87.2338 37.4805 86.7092 37.7258 86.1682 37.9548C85.6271 38.1837 85.0861 38.3636 84.5615 38.5108C84.0369 38.658 83.5779 38.7234 83.2008 38.7234C82.9221 38.7234 82.6762 38.6907 82.463 38.6253C82.2499 38.5599 82.0696 38.4454 81.922 38.2982C81.7745 38.1347 81.6433 37.9221 81.5449 37.6604C81.4466 37.3988 81.3482 37.0554 81.299 36.6465C81.2171 36.1069 81.1515 35.4691 81.1023 34.7332C81.0531 34.0136 81.0203 33.2123 81.0203 32.3619C81.0203 31.4625 81.0531 30.5304 81.1187 29.5983C81.1843 28.6661 81.2991 27.7176 81.4466 26.7855L81.3319 26.7528C80.6269 28.6007 79.8727 30.2687 79.053 31.7569C78.2333 33.245 77.3808 34.5206 76.5119 35.5672C75.643 36.6138 74.7578 37.4315 73.8725 38.0038C72.9872 38.5762 72.151 38.8542 71.3313 38.8542C70.5116 38.8542 69.8067 38.6416 69.2165 38.2328C68.6263 37.824 68.1345 37.2679 67.7574 36.5975C67.3803 35.927 67.1016 35.142 66.9213 34.2753C66.7409 33.3922 66.6426 32.4928 66.6426 31.577C66.6426 30.465 66.7573 29.3529 67.0032 28.2736C67.2492 27.1943 67.5934 26.1641 68.0689 25.1829C68.5279 24.218 69.0853 23.3186 69.7247 22.4846C70.3641 21.6506 71.1018 20.9473 71.8887 20.3423C72.6921 19.7372 73.5609 19.2793 74.4954 18.9359C75.4299 18.5925 76.4136 18.4289 77.43 18.4289C78.1514 18.4289 78.8727 18.5271 79.5776 18.7069C80.299 18.8868 81.0039 19.1812 81.7089 19.6064C81.7581 18.0692 81.8073 16.4993 81.8728 14.8966C81.9384 13.294 82.0204 11.7568 82.1187 10.2523C82.2171 8.74779 82.3155 7.32506 82.4138 5.98409C82.5122 4.64312 82.6434 3.44933 82.7745 2.38637C82.8073 2.17377 82.8729 1.97753 82.9876 1.814C83.1024 1.65047 83.25 1.53599 83.4303 1.43787C83.6106 1.33975 83.8238 1.27435 84.0369 1.22529C84.2664 1.17623 84.4959 1.15987 84.7255 1.15987C85.2993 1.14352 85.873 1.29069 86.4632 1.5687ZM81.5778 20.7511C80.3482 20.1624 79.135 19.8844 77.9218 19.8844C77.0365 19.8844 76.2332 20.0316 75.4791 20.3096C74.7413 20.5876 74.0692 20.9801 73.479 21.4707C72.8888 21.9613 72.3642 22.55 71.9215 23.2205C71.4789 23.891 71.1018 24.6105 70.8231 25.3791C70.528 26.1477 70.3149 26.949 70.1673 27.7667C70.0198 28.6007 69.9378 29.4184 69.9378 30.236C69.9378 30.5304 69.9542 30.8575 69.987 31.2336C70.0198 31.6097 70.069 32.0022 70.151 32.411C70.2329 32.8198 70.3313 33.2123 70.4624 33.5884C70.5936 33.9809 70.7411 34.3243 70.9379 34.6351C71.1346 34.9458 71.3641 35.1911 71.6264 35.371C71.8887 35.5508 72.2166 35.649 72.5773 35.649C73.2331 35.649 73.9052 35.4037 74.5774 34.9131C75.2659 34.4225 75.9217 33.7683 76.5775 32.967C77.2333 32.1657 77.8399 31.2336 78.4137 30.187C78.9875 29.1404 79.5121 28.0774 79.9547 26.9654C80.3974 25.8697 80.7744 24.774 81.0531 23.6947C81.3318 22.6154 81.5122 21.6342 81.5778 20.7511Z" fill="#BB4848"/>
<path d="M95.6769 18.9523C95.5293 19.9825 95.3981 21.0291 95.2834 22.0594C95.1686 23.106 95.0867 24.1035 95.0211 25.0684C94.9555 26.0332 94.9063 26.9654 94.8735 27.8321C94.8407 28.6988 94.8243 29.4838 94.8243 30.187C94.8243 31.1355 94.8408 31.9368 94.8572 32.6236C94.8899 33.2941 94.9227 33.8665 94.9883 34.3244C95.0539 34.7822 95.1358 35.1584 95.2342 35.4364C95.3326 35.7144 95.4473 35.927 95.5949 36.0742C95.7424 36.2214 95.9064 36.3195 96.0867 36.3685C96.2671 36.4176 96.4802 36.4339 96.7261 36.4339C97.1687 36.4339 97.6278 36.3685 98.136 36.2377C98.6442 36.1069 99.1524 35.927 99.6771 35.6817L99.9394 36.3849C99.6115 36.6465 99.2016 36.9082 98.7098 37.1862C98.218 37.4642 97.6934 37.7095 97.1524 37.9385C96.6113 38.1674 96.0703 38.3473 95.5457 38.4944C95.0211 38.6416 94.562 38.7071 94.185 38.7071C93.9227 38.7071 93.6932 38.6907 93.4964 38.6416C93.2833 38.6089 93.103 38.4944 92.9226 38.3309C92.7587 38.1674 92.6111 37.9221 92.48 37.6114C92.3488 37.3007 92.2341 36.8591 92.1521 36.3195C92.0701 35.7798 92.0045 35.093 91.9553 34.2753C91.9061 33.4576 91.8898 32.4764 91.8898 31.3154C91.8898 30.6285 91.8898 29.8599 91.9062 29.0095C91.9226 28.1592 91.939 27.227 91.9717 26.2458C92.0045 25.2646 92.0373 24.218 92.0865 23.1223C92.1357 22.0267 92.1849 20.8983 92.2668 19.7372C92.2832 19.4756 92.3488 19.2793 92.4636 19.1158C92.5783 18.9523 92.7259 18.8378 92.9062 18.756C93.0865 18.6743 93.2669 18.6088 93.4636 18.5761C93.6604 18.5434 93.8407 18.5271 94.0046 18.5271C94.5784 18.5434 95.1523 18.6742 95.6769 18.9523ZM94.4964 12.8034C94.185 12.8034 93.8899 12.738 93.644 12.6072C93.398 12.4764 93.1849 12.2965 93.021 12.0839C92.8406 11.8713 92.7095 11.626 92.6275 11.348C92.5291 11.07 92.4964 10.792 92.4964 10.4976C92.4964 10.0888 92.5619 9.729 92.6931 9.41829C92.8242 9.10757 93.0046 8.84591 93.2177 8.63332C93.4309 8.42073 93.6767 8.25719 93.9391 8.15907C94.2014 8.06095 94.4637 7.99554 94.7096 7.99554C95.0211 7.99554 95.2998 8.0446 95.5457 8.15907C95.7916 8.27354 96.0047 8.43708 96.1851 8.63332C96.3654 8.82956 96.4966 9.05852 96.5949 9.32017C96.6933 9.58182 96.7425 9.85983 96.7425 10.1542C96.7425 10.4649 96.6933 10.792 96.5786 11.1027C96.4638 11.4134 96.3162 11.6914 96.1195 11.953C95.9228 12.2147 95.6932 12.4109 95.4145 12.5581C95.1358 12.7216 94.8243 12.8034 94.4964 12.8034Z" fill="#BB4848"/>
<path d="M100.923 30.2851C100.923 29.3693 101.021 28.4372 101.202 27.4887C101.398 26.5402 101.677 25.6244 102.054 24.7413C102.431 23.8582 102.89 23.0242 103.448 22.2556C104.005 21.487 104.628 20.8002 105.349 20.2278C106.071 19.6391 106.874 19.1812 107.759 18.8541C108.645 18.5107 109.596 18.3472 110.645 18.3472C111.809 18.3472 112.842 18.5925 113.743 19.0831C114.645 19.5737 115.399 20.2278 116.006 21.0291C116.612 21.8304 117.071 22.7462 117.399 23.7765C117.711 24.8067 117.875 25.8534 117.875 26.9163C117.875 27.8321 117.776 28.7642 117.596 29.7127C117.416 30.6612 117.121 31.577 116.743 32.4601C116.366 33.3432 115.907 34.1772 115.35 34.9458C114.793 35.7144 114.17 36.4012 113.448 36.9736C112.727 37.5623 111.924 38.0202 111.038 38.3473C110.153 38.6907 109.202 38.8542 108.153 38.8542C106.989 38.8542 105.956 38.6089 105.054 38.1183C104.153 37.6277 103.415 36.9736 102.808 36.1723C102.202 35.371 101.743 34.4552 101.431 33.4249C101.087 32.411 100.923 31.3644 100.923 30.2851ZM104.185 28.9932C104.185 29.6146 104.235 30.236 104.333 30.8738C104.431 31.5116 104.579 32.1167 104.776 32.7054C104.972 33.2941 105.218 33.8501 105.513 34.3571C105.808 34.864 106.153 35.3219 106.563 35.698C106.972 36.0742 107.415 36.3849 107.923 36.5975C108.432 36.81 108.989 36.9245 109.596 36.9245C110.251 36.9245 110.841 36.7773 111.35 36.4993C111.858 36.2213 112.284 35.8289 112.661 35.3546C113.038 34.8804 113.333 34.3407 113.579 33.7356C113.825 33.1306 114.006 32.4928 114.153 31.855C114.301 31.2009 114.399 30.5631 114.465 29.9253C114.53 29.2875 114.547 28.6988 114.547 28.1755C114.547 27.5541 114.497 26.9163 114.399 26.2949C114.301 25.6571 114.153 25.052 113.956 24.4633C113.76 23.8746 113.514 23.335 113.219 22.8116C112.924 22.2883 112.579 21.8468 112.169 21.4707C111.76 21.0945 111.317 20.8002 110.809 20.5712C110.3 20.3423 109.743 20.2442 109.136 20.2442C108.464 20.2442 107.891 20.3913 107.382 20.6693C106.874 20.9474 106.448 21.3235 106.071 21.7977C105.71 22.272 105.399 22.8116 105.153 23.4167C104.907 24.0218 104.71 24.6432 104.579 25.2973C104.431 25.9351 104.333 26.5893 104.267 27.227C104.218 27.8812 104.185 28.4699 104.185 28.9932Z" fill="#BB4848"/>
<path d="M150.466 1.5687C150.139 3.87452 149.827 6.22938 149.532 8.64967C149.237 11.07 148.975 13.4739 148.745 15.8615C148.516 18.2654 148.335 20.6203 148.204 22.9425C148.073 25.2646 148.007 27.4887 148.007 29.631C148.007 30.6612 148.024 31.5443 148.04 32.2802C148.056 33.0161 148.106 33.6375 148.155 34.1445C148.204 34.6514 148.27 35.0602 148.352 35.3546C148.434 35.649 148.548 35.8779 148.679 36.0414C148.811 36.205 148.958 36.3194 149.138 36.3685C149.319 36.4176 149.516 36.4503 149.745 36.4503C150.188 36.4503 150.647 36.3849 151.155 36.254C151.663 36.1232 152.171 35.9433 152.696 35.698L152.958 36.4012C152.63 36.6629 152.221 36.9245 151.729 37.2025C151.237 37.4805 150.712 37.7258 150.171 37.9548C149.63 38.1837 149.089 38.3636 148.565 38.5108C148.04 38.658 147.581 38.7234 147.204 38.7234C146.925 38.7234 146.679 38.6907 146.466 38.6253C146.253 38.5599 146.073 38.4454 145.925 38.2982C145.778 38.1347 145.647 37.9221 145.548 37.6604C145.45 37.3988 145.351 37.0554 145.302 36.6465C145.22 36.1069 145.155 35.4691 145.106 34.7332C145.056 34.0136 145.024 33.2123 145.024 32.3619C145.024 31.4625 145.056 30.5304 145.122 29.5983C145.187 28.6661 145.302 27.7176 145.45 26.7855L145.335 26.7528C144.63 28.6007 143.876 30.2687 143.056 31.7569C142.237 33.245 141.384 34.5206 140.515 35.5672C139.646 36.6138 138.761 37.4315 137.876 38.0038C136.99 38.5762 136.154 38.8542 135.335 38.8542C134.515 38.8542 133.81 38.6416 133.22 38.2328C132.629 37.824 132.138 37.2679 131.761 36.5975C131.384 35.927 131.105 35.142 130.924 34.2753C130.744 33.3922 130.646 32.4928 130.646 31.577C130.646 30.465 130.761 29.3529 131.006 28.2736C131.252 27.1943 131.597 26.1641 132.072 25.1829C132.531 24.218 133.089 23.3186 133.728 22.4846C134.367 21.6506 135.105 20.9473 135.892 20.3423C136.695 19.7372 137.564 19.2793 138.499 18.9359C139.433 18.5925 140.417 18.4289 141.433 18.4289C142.155 18.4289 142.876 18.5271 143.581 18.7069C144.302 18.8868 145.007 19.1812 145.712 19.6064C145.761 18.0692 145.81 16.4993 145.876 14.8966C145.942 13.294 146.024 11.7568 146.122 10.2523C146.22 8.74779 146.319 7.32506 146.417 5.98409C146.515 4.64312 146.647 3.44933 146.778 2.38637C146.811 2.17377 146.876 1.97753 146.991 1.814C147.106 1.65047 147.253 1.53599 147.434 1.43787C147.614 1.33975 147.827 1.27435 148.04 1.22529C148.27 1.17623 148.499 1.15987 148.729 1.15987C149.302 1.14352 149.86 1.29069 150.466 1.5687ZM145.565 20.7511C144.335 20.1624 143.122 19.8844 141.909 19.8844C141.023 19.8844 140.22 20.0316 139.466 20.3096C138.728 20.5876 138.056 20.9801 137.466 21.4707C136.876 21.9613 136.351 22.55 135.908 23.2205C135.466 23.891 135.089 24.6105 134.81 25.3791C134.515 26.1477 134.302 26.949 134.154 27.7667C134.007 28.6007 133.925 29.4184 133.925 30.236C133.925 30.5304 133.941 30.8575 133.974 31.2336C134.007 31.6097 134.056 32.0022 134.138 32.411C134.22 32.8198 134.318 33.2123 134.449 33.5884C134.58 33.9809 134.728 34.3243 134.925 34.6351C135.121 34.9458 135.351 35.1911 135.613 35.371C135.876 35.5508 136.203 35.649 136.564 35.649C137.22 35.649 137.892 35.4037 138.564 34.9131C139.253 34.4225 139.909 33.7683 140.564 32.967C141.22 32.1657 141.827 31.2336 142.4 30.187C142.974 29.1404 143.499 28.0774 143.942 26.9654C144.384 25.8697 144.761 24.774 145.04 23.6947C145.335 22.6154 145.499 21.6342 145.565 20.7511Z" fill="#BB4848"/>
<path d="M168.139 33.8992C168.189 33.9319 168.271 33.9646 168.353 34.0136C168.435 34.0627 168.517 34.1118 168.598 34.1772C168.664 34.2426 168.73 34.2916 168.795 34.3734C168.844 34.4388 168.877 34.5042 168.877 34.5696C168.877 34.6023 168.861 34.6351 168.828 34.6841C168.32 35.3873 167.762 36.0087 167.189 36.532C166.598 37.0553 165.992 37.4969 165.352 37.8403C164.713 38.1837 164.074 38.4454 163.418 38.6089C162.762 38.7724 162.123 38.8542 161.483 38.8542C160.385 38.8542 159.385 38.6253 158.483 38.1837C157.565 37.7422 156.795 37.1371 156.139 36.3521C155.483 35.5835 154.975 34.6678 154.598 33.6375C154.237 32.5909 154.04 31.4789 154.04 30.3014C154.04 29.3366 154.155 28.3554 154.368 27.3906C154.581 26.4257 154.893 25.4936 155.303 24.6105C155.713 23.7274 156.204 22.9098 156.778 22.1575C157.368 21.4052 158.024 20.7347 158.762 20.1787C159.5 19.6227 160.319 19.1812 161.205 18.8705C162.09 18.5598 163.041 18.3962 164.057 18.3962C164.729 18.3962 165.369 18.4944 165.975 18.6742C166.582 18.8541 167.123 19.1158 167.582 19.4592C168.041 19.8026 168.402 20.2114 168.68 20.7184C168.959 21.2254 169.09 21.7814 169.09 22.4191C169.09 23.3513 168.795 24.1526 168.189 24.8394C167.582 25.5263 166.746 26.115 165.68 26.5892C164.615 27.0635 163.369 27.456 161.926 27.7503C160.483 28.0447 158.926 28.2736 157.254 28.4045V28.6334C157.254 29.7945 157.401 30.8574 157.696 31.8223C157.991 32.7871 158.401 33.6048 158.926 34.2916C159.45 34.9785 160.057 35.5181 160.762 35.8943C161.467 36.2704 162.221 36.4666 163.024 36.4666C163.844 36.4666 164.68 36.2704 165.549 35.8616C166.385 35.4527 167.254 34.7986 168.139 33.8992ZM165.582 22.9588C165.582 22.5336 165.516 22.1575 165.369 21.7814C165.221 21.4216 165.025 21.1109 164.779 20.8329C164.533 20.5712 164.238 20.3586 163.877 20.1951C163.533 20.0479 163.156 19.9662 162.762 19.9662C162.172 19.9662 161.631 20.0643 161.155 20.2769C160.68 20.4895 160.237 20.7675 159.86 21.1272C159.483 21.487 159.139 21.8958 158.844 22.3864C158.549 22.8607 158.303 23.3676 158.106 23.9073C157.909 24.447 157.729 24.9866 157.614 25.559C157.483 26.115 157.401 26.671 157.336 27.2107C158.631 27.1125 159.778 26.9654 160.811 26.7364C161.828 26.5075 162.697 26.2295 163.402 25.886C164.106 25.5426 164.647 25.1174 165.025 24.6268C165.385 24.1362 165.582 23.5802 165.582 22.9588Z" fill="#BB4848"/>
<path d="M184.698 11.07C184.698 10.6938 184.665 10.3668 184.599 10.0888C184.534 9.81075 184.419 9.59816 184.271 9.41827C184.108 9.23838 183.894 9.1239 183.616 9.04214C183.337 8.96037 182.976 8.92767 182.534 8.92767C181.927 8.92767 181.157 8.99308 180.222 9.1239L180.091 7.91375C180.911 7.76657 181.812 7.60306 182.796 7.43952C183.763 7.27599 184.78 7.1288 185.813 6.99797C186.845 6.86715 187.878 6.75267 188.927 6.67091C189.977 6.58914 190.977 6.54009 191.944 6.54009C192.731 6.54009 193.518 6.57279 194.272 6.65456C195.026 6.73632 195.764 6.86715 196.436 7.06339C197.125 7.24328 197.748 7.50493 198.321 7.81564C198.895 8.12635 199.387 8.51883 199.813 8.97672C200.239 9.43461 200.551 9.99063 200.797 10.6121C201.026 11.2498 201.158 11.9694 201.158 12.787C201.158 13.9645 200.944 14.9947 200.518 15.9105C200.092 16.8263 199.518 17.6113 198.813 18.2981C198.092 18.9686 197.272 19.541 196.321 19.9989C195.387 20.4567 194.403 20.8165 193.354 21.0945V21.209C194.715 21.3071 195.977 21.5361 197.141 21.8958C198.289 22.2556 199.305 22.7462 200.141 23.4004C200.977 24.0545 201.649 24.8558 202.125 25.8206C202.6 26.7855 202.846 27.9139 202.846 29.2385C202.846 30.3505 202.699 31.3481 202.387 32.2311C202.076 33.1142 201.666 33.9155 201.125 34.6024C200.584 35.2892 199.961 35.8779 199.223 36.3685C198.485 36.8591 197.698 37.268 196.846 37.5787C195.993 37.8894 195.092 38.1347 194.141 38.2819C193.19 38.429 192.239 38.5108 191.272 38.5108C190.468 38.5108 189.698 38.4618 188.977 38.38C188.239 38.2819 187.468 38.1837 186.632 38.0366L183.976 38.3473L183.73 38.3146C183.845 37.1208 183.96 35.8289 184.058 34.4388C184.157 33.0488 184.239 31.5934 184.304 30.0889C184.37 28.568 184.435 27.0144 184.485 25.4118C184.534 23.8092 184.583 22.2065 184.616 20.5876C184.649 18.9686 184.665 17.3496 184.681 15.747C184.698 14.1444 184.698 12.5745 184.698 11.07ZM187.239 36.4176C187.927 36.5975 188.567 36.7119 189.19 36.7774C189.813 36.8428 190.436 36.8755 191.059 36.8755C192.19 36.8755 193.239 36.7447 194.223 36.4667C195.206 36.1886 196.059 35.7471 196.78 35.1584C197.502 34.5697 198.075 33.8011 198.485 32.8689C198.895 31.9368 199.108 30.8248 199.108 29.5328C199.108 28.3227 198.895 27.2597 198.485 26.3603C198.059 25.4445 197.452 24.6923 196.666 24.0872C195.862 23.4821 194.895 23.0242 193.731 22.7135C192.567 22.4028 191.239 22.2556 189.747 22.2556C189.452 22.2556 189.157 22.2556 188.845 22.272C188.534 22.2883 188.239 22.3047 187.927 22.321C187.911 22.8771 187.895 23.5148 187.862 24.2671C187.829 25.0193 187.796 25.8043 187.763 26.6383C187.731 27.4887 187.681 28.3554 187.649 29.2548C187.6 30.1543 187.567 31.0373 187.518 31.9041C187.468 32.7708 187.419 33.5885 187.386 34.3734C187.321 35.1093 187.288 35.8125 187.239 36.4176ZM188.255 8.28989C188.239 8.87861 188.239 9.59816 188.222 10.4649C188.206 11.3153 188.173 12.2801 188.157 13.3431C188.124 14.406 188.108 15.5671 188.075 16.8263C188.042 18.0855 188.009 19.3938 187.977 20.7838C188.764 20.7675 189.55 20.702 190.337 20.5876C191.108 20.4731 191.862 20.3096 192.567 20.0806C193.272 19.8517 193.928 19.5573 194.518 19.1812C195.108 18.8051 195.633 18.3635 196.075 17.8566C196.518 17.3333 196.862 16.7282 197.108 16.0414C197.354 15.3545 197.485 14.5532 197.485 13.6701C197.485 12.6235 197.321 11.7404 196.977 11.0209C196.633 10.3013 196.174 9.72898 195.583 9.28744C194.993 8.8459 194.305 8.53519 193.518 8.35531C192.731 8.15907 191.895 8.07729 190.993 8.07729C190.55 8.07729 190.108 8.09365 189.649 8.12636C189.19 8.15906 188.731 8.20812 188.255 8.28989Z" fill="#BB4848"/>
<path d="M219.716 33.8992C219.765 33.9319 219.847 33.9646 219.929 34.0136C220.011 34.0627 220.093 34.1118 220.175 34.1772C220.241 34.2426 220.306 34.2916 220.372 34.3734C220.421 34.4388 220.454 34.5042 220.454 34.5696C220.454 34.6023 220.437 34.6351 220.404 34.6841C219.896 35.3873 219.339 36.0087 218.765 36.532C218.175 37.0553 217.568 37.4969 216.929 37.8403C216.289 38.1837 215.65 38.4454 214.994 38.6089C214.339 38.7724 213.699 38.8542 213.06 38.8542C211.961 38.8542 210.961 38.6253 210.06 38.1837C209.142 37.7422 208.371 37.1371 207.715 36.3521C207.06 35.5835 206.551 34.6678 206.174 33.6375C205.814 32.5909 205.617 31.4789 205.617 30.3014C205.617 29.3366 205.732 28.3554 205.945 27.3906C206.158 26.4257 206.469 25.4936 206.879 24.6105C207.289 23.7274 207.781 22.9098 208.355 22.1575C208.945 21.4052 209.601 20.7347 210.338 20.1787C211.076 19.6227 211.896 19.1812 212.781 18.8705C213.666 18.5598 214.617 18.3962 215.634 18.3962C216.306 18.3962 216.945 18.4944 217.552 18.6742C218.158 18.8541 218.699 19.1158 219.158 19.4592C219.618 19.8026 219.978 20.2114 220.257 20.7184C220.536 21.2254 220.667 21.7814 220.667 22.4191C220.667 23.3513 220.372 24.1526 219.765 24.8394C219.158 25.5263 218.322 26.115 217.257 26.5892C216.191 27.0635 214.945 27.456 213.502 27.7503C212.06 28.0447 210.502 28.2736 208.83 28.4045V28.6334C208.83 29.7945 208.978 30.8574 209.273 31.8223C209.568 32.7871 209.978 33.6048 210.502 34.2916C211.027 34.9785 211.634 35.5181 212.338 35.8943C213.043 36.2704 213.798 36.4666 214.601 36.4666C215.421 36.4666 216.257 36.2704 217.126 35.8616C217.962 35.4527 218.831 34.7986 219.716 33.8992ZM217.158 22.9588C217.158 22.5336 217.093 22.1575 216.945 21.7814C216.798 21.4216 216.601 21.1109 216.355 20.8329C216.109 20.5712 215.814 20.3586 215.453 20.1951C215.109 20.0479 214.732 19.9662 214.339 19.9662C213.748 19.9662 213.207 20.0643 212.732 20.2769C212.257 20.4895 211.814 20.7675 211.437 21.1272C211.06 21.487 210.715 21.8958 210.42 22.3864C210.125 22.8607 209.879 23.3676 209.683 23.9073C209.486 24.447 209.306 24.9866 209.191 25.559C209.06 26.115 208.978 26.671 208.912 27.2107C210.207 27.1125 211.355 26.9654 212.388 26.7364C213.404 26.5075 214.273 26.2295 214.978 25.886C215.683 25.5426 216.224 25.1174 216.601 24.6268C216.962 24.1362 217.158 23.5802 217.158 22.9588Z" fill="#BB4848"/>
<path d="M229.782 1.5687C229.602 3.10591 229.421 4.69218 229.241 6.31116C229.061 7.93014 228.897 9.56546 228.733 11.2335C228.569 12.8852 228.421 14.5532 228.29 16.2213C228.159 17.8893 228.028 19.541 227.929 21.1599C227.831 22.7789 227.749 24.3652 227.7 25.9351C227.651 27.4887 227.618 28.9932 227.618 30.4323C227.618 31.3317 227.634 32.1003 227.651 32.7544C227.667 33.3922 227.716 33.9482 227.766 34.3898C227.815 34.8313 227.88 35.1911 227.962 35.4691C228.044 35.7471 228.159 35.9433 228.29 36.0905C228.421 36.2377 228.569 36.3358 228.733 36.3849C228.913 36.4339 229.11 36.4667 229.339 36.4667C229.782 36.4667 230.241 36.4012 230.749 36.2704C231.258 36.1396 231.766 35.9597 232.29 35.7144L232.553 36.4176C232.225 36.6792 231.815 36.9409 231.323 37.2189C230.831 37.4969 230.307 37.7422 229.766 37.9711C229.225 38.2001 228.684 38.38 228.159 38.5272C227.634 38.6743 227.175 38.7397 226.798 38.7397C226.306 38.7397 225.913 38.6089 225.634 38.3636C225.356 38.1183 225.126 37.7095 224.978 37.1371C224.831 36.5811 224.733 35.8452 224.7 34.9458C224.667 34.0464 224.634 32.9343 224.634 31.6424C224.634 31.1682 224.651 30.4977 224.683 29.6146C224.716 28.7315 224.749 27.7176 224.798 26.5565C224.847 25.3955 224.913 24.1199 224.962 22.7462C225.028 21.3726 225.093 19.9334 225.159 18.4617C225.224 16.9899 225.306 15.5017 225.388 13.9972C225.47 12.4927 225.552 11.0373 225.634 9.64724C225.716 8.24085 225.798 6.91623 225.864 5.67338C225.929 4.43053 226.011 3.33486 226.06 2.38637C226.077 2.17377 226.126 1.97753 226.257 1.814C226.372 1.65047 226.536 1.53599 226.716 1.43787C226.897 1.33975 227.11 1.27435 227.339 1.22529C227.569 1.17623 227.798 1.15987 228.044 1.15987C228.602 1.14352 229.175 1.2907 229.782 1.5687Z" fill="#BB4848"/>
<path d="M247.767 33.8992C247.816 33.9319 247.898 33.9646 247.98 34.0136C248.062 34.0627 248.144 34.1118 248.226 34.1772C248.291 34.2426 248.357 34.2916 248.422 34.3734C248.472 34.4388 248.504 34.5042 248.504 34.5696C248.504 34.6023 248.488 34.6351 248.455 34.6841C247.947 35.3873 247.389 36.0087 246.816 36.532C246.225 37.0553 245.619 37.4969 244.98 37.8403C244.34 38.1837 243.701 38.4454 243.045 38.6089C242.389 38.7724 241.75 38.8542 241.11 38.8542C240.012 38.8542 239.012 38.6253 238.11 38.1837C237.192 37.7422 236.422 37.1371 235.766 36.3521C235.11 35.5835 234.602 34.6678 234.225 33.6375C233.864 32.5909 233.667 31.4789 233.667 30.3014C233.667 29.3366 233.782 28.3554 233.995 27.3906C234.208 26.4257 234.52 25.4936 234.93 24.6105C235.34 23.7274 235.832 22.9098 236.405 22.1575C236.996 21.4052 237.651 20.7347 238.389 20.1787C239.127 19.6227 239.946 19.1812 240.832 18.8705C241.717 18.5598 242.668 18.3962 243.684 18.3962C244.357 18.3962 244.996 18.4944 245.603 18.6742C246.209 18.8541 246.75 19.1158 247.209 19.4592C247.668 19.8026 248.029 20.2114 248.308 20.7184C248.586 21.2254 248.717 21.7814 248.717 22.4191C248.717 23.3513 248.422 24.1526 247.816 24.8394C247.209 25.5263 246.373 26.115 245.307 26.5892C244.242 27.0635 242.996 27.456 241.553 27.7503C240.11 28.0447 238.553 28.2736 236.881 28.4045V28.6334C236.881 29.7945 237.028 30.8574 237.323 31.8223C237.619 32.7871 238.028 33.6048 238.553 34.2916C239.078 34.9785 239.684 35.5181 240.389 35.8943C241.094 36.2704 241.848 36.4666 242.652 36.4666C243.471 36.4666 244.307 36.2704 245.176 35.8616C246.012 35.4527 246.881 34.7986 247.767 33.8992ZM245.209 22.9588C245.209 22.5336 245.143 22.1575 244.996 21.7814C244.848 21.4216 244.652 21.1109 244.406 20.8329C244.16 20.5712 243.865 20.3586 243.504 20.1951C243.16 20.0479 242.783 19.9662 242.389 19.9662C241.799 19.9662 241.258 20.0643 240.783 20.2769C240.307 20.4895 239.865 20.7675 239.487 21.1272C239.11 21.487 238.766 21.8958 238.471 22.3864C238.176 22.8607 237.93 23.3676 237.733 23.9073C237.537 24.447 237.356 24.9866 237.241 25.559C237.11 26.115 237.028 26.671 236.963 27.2107C238.258 27.1125 239.405 26.9654 240.438 26.7364C241.455 26.5075 242.324 26.2295 243.029 25.886C243.734 25.5426 244.275 25.1174 244.652 24.6268C245.012 24.1362 245.209 23.5802 245.209 22.9588Z" fill="#BB4848"/>
<path d="M250.308 37.9385C250.521 37.5787 250.832 37.1044 251.258 36.5321C251.685 35.9597 252.177 35.3056 252.734 34.586C253.291 33.8665 253.914 33.0979 254.586 32.2966C255.259 31.4789 255.947 30.6612 256.636 29.8436C257.341 29.0259 258.029 28.2082 258.734 27.4069C259.439 26.6056 260.095 25.8534 260.718 25.1665C261.341 24.4797 261.898 23.8583 262.407 23.3022C262.915 22.7462 263.325 22.321 263.653 21.994L263.571 21.8958C263.193 21.9776 262.767 22.043 262.325 22.0757C261.882 22.1085 261.439 22.1411 261.029 22.1411C260.406 22.1411 259.816 22.1248 259.259 22.0757C258.701 22.0267 258.177 21.9776 257.718 21.9286C257.242 21.8795 256.833 21.8304 256.488 21.7814C256.128 21.7323 255.865 21.716 255.669 21.716C255.275 21.716 254.914 21.765 254.603 21.8795C254.291 21.994 254.013 22.1739 253.767 22.4355C253.521 22.6972 253.341 23.0406 253.193 23.4821C253.045 23.9237 252.947 24.4633 252.882 25.1175L251.849 25.0847C251.865 24.5941 251.865 24.1035 251.881 23.5966C251.898 23.0896 251.931 22.6154 252.013 22.1411C252.078 21.6669 252.177 21.2417 252.324 20.8165C252.455 20.4077 252.652 20.0479 252.914 19.7372C253.177 19.4265 253.504 19.1976 253.898 19.0177C254.291 18.8378 254.783 18.756 255.373 18.756C255.849 18.756 256.373 18.7887 256.98 18.8541C257.57 18.9195 258.21 18.985 258.865 19.0504C259.521 19.1158 260.193 19.1976 260.898 19.2466C261.587 19.312 262.259 19.3447 262.915 19.3447C263.62 19.3447 264.308 19.2957 264.948 19.1812C265.587 19.0667 266.128 18.8868 266.571 18.6252L267.341 19.2466C267.161 19.6391 266.882 20.1297 266.505 20.7021C266.128 21.2744 265.685 21.8959 265.194 22.5827C264.685 23.2695 264.128 23.9891 263.521 24.774C262.915 25.5427 262.275 26.3276 261.603 27.1126C260.947 27.8975 260.275 28.6988 259.603 29.4838C258.931 30.2688 258.259 31.021 257.619 31.7406C256.98 32.4601 256.373 33.1306 255.8 33.752C255.226 34.3734 254.718 34.9294 254.275 35.3873L254.39 35.4855C254.57 35.4201 254.767 35.3383 254.98 35.2892C255.21 35.2238 255.439 35.1747 255.669 35.1257C255.898 35.0766 256.144 35.0439 256.373 35.0276C256.603 35.0112 256.816 34.9949 257.013 34.9949C257.587 34.9949 258.16 35.0439 258.718 35.1257C259.292 35.2075 259.833 35.3056 260.374 35.4037C260.898 35.5018 261.423 35.5999 261.915 35.6817C262.407 35.7635 262.866 35.8125 263.308 35.8125C263.718 35.8125 264.095 35.7635 264.456 35.649C264.8 35.5345 265.112 35.3546 265.39 35.0766C265.669 34.7986 265.899 34.4225 266.079 33.9483C266.259 33.474 266.39 32.8689 266.456 32.133L267.472 32.2148C267.456 33.5231 267.341 34.6024 267.145 35.4528C266.948 36.3031 266.669 36.9736 266.308 37.4806C265.948 37.9712 265.538 38.3146 265.046 38.5108C264.571 38.7071 264.03 38.8052 263.456 38.8052C262.849 38.8052 262.21 38.7234 261.538 38.5762C260.866 38.4291 260.161 38.2655 259.439 38.0856C258.718 37.9057 257.98 37.7422 257.242 37.595C256.488 37.4479 255.767 37.3661 255.029 37.3661C254.341 37.3661 253.685 37.4642 253.062 37.6441C252.422 37.824 251.816 38.1511 251.242 38.609L250.308 37.9385Z" fill="#BB4848"/>
<path d="M281.227 24.1199C281.227 23.4004 281.112 22.779 280.867 22.2556C280.637 21.7323 280.326 21.2908 279.932 20.9637C279.555 20.6203 279.112 20.375 278.637 20.2115C278.162 20.048 277.67 19.9662 277.194 19.9662C276.555 19.9662 275.997 20.0316 275.555 20.1624C275.112 20.2932 274.751 20.4895 274.473 20.7184C274.194 20.9474 273.997 21.2417 273.866 21.5524C273.735 21.8795 273.686 22.2229 273.686 22.5991C273.686 23.0406 273.768 23.4658 273.932 23.9073C274.096 24.3489 274.325 24.7741 274.637 25.1992L274.588 25.3464C274.063 25.6081 273.538 25.7225 273.014 25.7225C272.702 25.7225 272.424 25.6735 272.145 25.5754C271.883 25.4772 271.637 25.3464 271.456 25.1665C271.26 24.9866 271.112 24.7577 270.997 24.496C270.882 24.2344 270.833 23.94 270.833 23.613C270.833 23.0733 270.964 22.5664 271.227 22.1085C271.489 21.6342 271.833 21.209 272.26 20.8166C272.686 20.4241 273.178 20.0806 273.751 19.7699C274.309 19.4592 274.899 19.1976 275.506 18.985C276.112 18.7724 276.702 18.6089 277.309 18.4944C277.916 18.3799 278.473 18.3309 278.998 18.3309C279.949 18.3309 280.768 18.4617 281.44 18.707C282.113 18.9686 282.67 19.3284 283.096 19.819C283.522 20.3096 283.834 20.8983 284.031 21.5852C284.227 22.272 284.326 23.057 284.326 23.9237C284.326 24.5288 284.293 25.1829 284.244 25.9024C284.195 26.622 284.129 27.3742 284.08 28.1592C284.014 28.9441 283.965 29.7618 283.916 30.5958C283.867 31.4299 283.834 32.2639 283.834 33.0815C283.834 34.3898 284.08 35.371 284.572 36.0251C285.064 36.6793 285.703 37.0063 286.49 37.0063C287.195 37.0063 287.965 36.7447 288.834 36.2377L289.228 36.8264C288.621 37.4315 287.949 37.8894 287.228 38.2165C286.506 38.5272 285.752 38.6907 284.965 38.6907C284.375 38.6907 283.834 38.5926 283.326 38.3964C282.817 38.2001 282.391 37.9058 282.031 37.4969C281.67 37.1044 281.391 36.5975 281.178 36.0088C280.981 35.4037 280.883 34.7169 280.883 33.9319C280.883 33.703 280.883 33.4577 280.899 33.2287C280.916 32.9998 280.949 32.7381 280.981 32.4765H280.899C280.506 33.2614 280.063 34.03 279.539 34.7823C279.03 35.5345 278.457 36.2214 277.85 36.8101C277.243 37.3988 276.588 37.8894 275.883 38.2492C275.178 38.6089 274.456 38.8052 273.686 38.8052C273.063 38.8052 272.489 38.6907 271.964 38.4781C271.44 38.2655 270.997 37.9548 270.637 37.5787C270.276 37.2026 269.981 36.7447 269.784 36.2214C269.587 35.6981 269.473 35.1257 269.473 34.5206C269.473 33.7193 269.62 32.9998 269.915 32.3456C270.21 31.6915 270.62 31.1028 271.145 30.5958C271.669 30.0725 272.292 29.631 273.014 29.2549C273.735 28.8787 274.538 28.568 275.391 28.3227C276.243 28.0774 277.145 27.8812 278.112 27.7667C279.063 27.6522 280.047 27.5868 281.031 27.5868C281.096 27.0145 281.145 26.4585 281.194 25.9188C281.211 25.3464 281.227 24.7577 281.227 24.1199ZM272.85 33.474C272.85 33.8338 272.883 34.1608 272.965 34.4879C273.046 34.815 273.161 35.093 273.325 35.3383C273.489 35.5836 273.702 35.7798 273.965 35.9107C274.227 36.0578 274.538 36.1232 274.899 36.1232C275.309 36.1232 275.735 36.0251 276.161 35.8452C276.604 35.649 277.03 35.3873 277.457 35.0603C277.883 34.7169 278.276 34.3244 278.67 33.8501C279.063 33.3759 279.407 32.8689 279.719 32.3129C280.03 31.7569 280.293 31.1682 280.489 30.5631C280.686 29.958 280.834 29.3203 280.899 28.6825C280.227 28.6988 279.555 28.7479 278.899 28.8133C278.227 28.8787 277.604 28.9932 277.014 29.1404C276.424 29.2876 275.866 29.4838 275.358 29.7128C274.85 29.9417 274.407 30.2361 274.047 30.5958C273.686 30.9393 273.391 31.3644 273.178 31.8387C272.965 32.2966 272.85 32.8526 272.85 33.474Z" fill="#BB4848"/>
<path d="M151.942 44.398C144.532 43.6294 136.859 44.0382 129.416 43.9728C121.58 43.9074 113.743 43.9728 105.907 43.9728C90.6929 43.9728 75.5119 43.9238 60.298 44.3489C59.757 44.3653 59.757 45.1993 60.298 45.1829C60.7078 45.1666 61.1177 45.1666 61.5275 45.1502C62.0194 45.1339 62.0194 44.4144 61.5275 44.398C61.1177 44.3817 60.7078 44.3816 60.298 44.3653C59.757 44.3489 59.757 45.1829 60.298 45.1993C75.4955 45.6245 90.6929 45.5754 105.907 45.5754C113.415 45.5754 120.924 45.6408 128.433 45.5754C136.203 45.51 144.204 45.9516 151.942 45.1502C152.417 45.0685 152.417 44.4471 151.942 44.398Z" fill="#FF8080"/>
<path d="M81.3319 44.4961C75.1185 43.4659 68.4296 43.9238 62.1505 43.9074C58.9701 43.8911 55.7896 43.891 52.6091 43.8747C50.0188 43.8747 46.7071 43.2696 44.33 44.3653C44.0349 44.4961 44.0349 45.0031 44.33 45.1502C46.494 46.1478 49.3138 45.6408 51.6582 45.6408C55.1502 45.6245 58.6586 45.6245 62.1505 45.6081C68.4296 45.5918 75.1185 46.0496 81.3319 45.0194C81.5778 44.9703 81.5778 44.5452 81.3319 44.4961Z" fill="#FF8080"/>
<path d="M108.104 44.398C100.694 43.6294 93.021 44.0382 85.578 43.9728C77.7415 43.9074 69.9051 43.9728 62.0686 43.9728C46.8547 43.9728 31.6736 43.9238 16.4597 44.3489C15.9187 44.3653 15.9187 45.1993 16.4597 45.1829C16.8696 45.1666 17.2794 45.1666 17.6893 45.1502C18.1811 45.1339 18.1811 44.4144 17.6893 44.398C17.2794 44.3817 16.8696 44.3816 16.4597 44.3653C15.9187 44.3489 15.9187 45.1829 16.4597 45.1993C31.6572 45.6245 46.8547 45.5754 62.0686 45.5754C69.5772 45.5754 77.0858 45.6408 84.5944 45.5754C92.3652 45.51 100.366 45.9516 108.104 45.1502C108.579 45.0685 108.579 44.4471 108.104 44.398Z" fill="#FF8080"/>
<path d="M37.4771 44.4961C31.2637 43.4659 24.5748 43.9238 18.2958 43.9074C15.1153 43.8911 11.9348 43.891 8.75434 43.8747C6.16404 43.8747 2.8524 43.2696 0.475229 44.3653C0.180132 44.4961 0.180132 45.0031 0.475229 45.1502C2.63927 46.1478 5.45908 45.6408 7.80346 45.6408C11.2954 45.6245 14.8038 45.6245 18.2958 45.6081C24.5748 45.5918 31.2637 46.0496 37.4771 45.0194C37.7394 44.9703 37.7394 44.5452 37.4771 44.4961Z" fill="#FF8080"/>
<path d="M71.2657 44.5125C66.2163 43.9892 60.9865 44.2672 55.9207 44.2181C50.5761 44.1691 45.248 44.2181 39.9035 44.2181C29.5423 44.2181 19.1811 44.1854 8.8199 44.4798C8.45923 44.4961 8.44283 45.0521 8.8199 45.0521C9.0986 45.0358 9.3773 45.0358 9.65601 45.0358C10.0003 45.0194 10.0003 44.5288 9.65601 44.5125C9.3773 44.5125 9.0986 44.4961 8.8199 44.4961C8.44283 44.4798 8.45923 45.0521 8.8199 45.0685C19.1811 45.3628 29.5423 45.3301 39.9035 45.3301C45.0185 45.3301 50.1335 45.3792 55.2485 45.3301C60.5439 45.281 66.0032 45.5754 71.2657 45.0358C71.5936 44.9703 71.5936 44.5452 71.2657 44.5125Z" fill="#FF8080"/>
<path d="M148.647 44.398C156.057 43.6294 163.729 44.0382 171.172 43.9728C179.009 43.9074 186.845 43.9728 194.682 43.9728C209.896 43.9728 225.077 43.9238 240.291 44.3489C240.832 44.3653 240.832 45.1993 240.291 45.1829C239.881 45.1666 239.471 45.1666 239.061 45.1502C238.569 45.1339 238.569 44.4144 239.061 44.398C239.471 44.3817 239.881 44.3816 240.291 44.3653C240.832 44.3489 240.832 45.1829 240.291 45.1993C225.093 45.6245 209.896 45.5754 194.682 45.5754C187.173 45.5754 179.665 45.6408 172.156 45.5754C164.385 45.51 156.385 45.9516 148.647 45.1502C148.171 45.0685 148.171 44.4471 148.647 44.398Z" fill="#FF8080"/>
<path d="M236.356 53.6866C236.602 54.0137 236.553 54.0464 236.192 53.7847C235.684 53.5394 235.143 53.3923 234.569 53.3269C232.962 53.1633 232.356 55.2075 233.159 56.2214C234.176 57.5133 236.045 58.1511 237.618 58.4945C240.996 59.214 244.717 56.434 245.553 53.3269C246.406 50.1216 243.979 47.2598 241.127 46.1478C238.832 45.2483 236.159 45.51 233.733 45.6081C231.192 45.7226 228.667 45.7716 226.142 45.3628C225.7 45.2974 225.847 44.676 226.241 44.6433C232.356 44.2017 241.291 41.8305 245.816 47.407C248.537 50.7757 247.603 55.7962 244.094 58.2492C240.242 60.9311 234.077 60.9475 231.356 56.5648C230.339 54.9458 231.471 52.6073 233.176 51.9368C234.274 51.4953 237.93 51.5771 237.832 53.4904C237.766 54.2754 236.553 54.5043 236.356 53.6866Z" fill="#FF8080"/>
<path d="M219.257 44.4961C225.47 43.4659 232.159 43.9238 238.438 43.9074C241.619 43.8911 244.799 43.891 247.98 43.8747C250.57 43.8747 253.882 43.2696 256.259 44.3653C256.554 44.4961 256.554 45.0031 256.259 45.1502C254.095 46.1478 251.275 45.6408 248.93 45.6408C245.438 45.6245 241.93 45.6245 238.438 45.6081C232.159 45.5918 225.47 46.0496 219.257 45.0194C219.011 44.9703 219.011 44.5452 219.257 44.4961Z" fill="#FF8080"/>
<path d="M192.485 44.398C199.895 43.6294 207.568 44.0382 215.011 43.9728C222.847 43.9074 230.684 43.9728 238.52 43.9728C253.734 43.9728 268.915 43.9238 284.129 44.3489C284.67 44.3653 284.67 45.1993 284.129 45.1829C283.719 45.1666 283.309 45.1666 282.899 45.1502C282.408 45.1339 282.408 44.4144 282.899 44.398C283.309 44.3817 283.719 44.3816 284.129 44.3653C284.67 44.3489 284.67 45.1829 284.129 45.1993C268.932 45.6245 253.734 45.5754 238.52 45.5754C231.012 45.5754 223.503 45.6408 215.994 45.5754C208.223 45.51 200.223 45.9516 192.485 45.1502C192.01 45.0685 192.01 44.4471 192.485 44.398Z" fill="#FF8080"/>
<path d="M280.211 53.6866C280.457 54.0137 280.408 54.0464 280.047 53.7847C279.539 53.5394 278.998 53.3923 278.424 53.3269C276.817 53.1633 276.211 55.2075 277.014 56.2214C278.03 57.5133 279.899 58.1511 281.473 58.4945C284.85 59.214 288.572 56.434 289.408 53.3269C290.261 50.1216 287.834 47.2598 284.982 46.1478C282.686 45.2483 280.014 45.51 277.588 45.6081C275.047 45.7226 272.522 45.7716 269.997 45.3628C269.555 45.2974 269.702 44.676 270.096 44.6433C276.211 44.2017 285.146 41.8305 289.67 47.407C292.392 50.7757 291.457 55.7962 287.949 58.2492C284.096 60.9311 277.932 60.9475 275.211 56.5648C274.194 54.9458 275.325 52.6073 277.03 51.9368C278.145 51.4953 281.785 51.5771 281.686 53.4904C281.621 54.2754 280.391 54.5043 280.211 53.6866Z" fill="#FF8080"/>
<path d="M301.605 36.3031C301.753 39.4756 292.916 38.2328 294.966 33.5884C297.048 28.895 303.72 28.9605 307.458 31.2663C311.278 33.6212 312.311 38.5926 309.737 42.223C305.556 48.0938 295.982 45.5918 290.031 45.1666C289.638 45.1339 289.49 44.5288 289.933 44.447C294.851 43.6621 300.179 45.232 304.917 43.6621C307.966 42.6482 309.966 39.6065 309.343 36.483C308.688 33.196 304.671 30.8084 301.409 31.3154C299.753 31.577 298.113 32.3783 296.949 33.5884C296.13 34.4388 296.54 35.3383 297.294 36.0578C297.917 36.5321 298.572 36.6138 299.261 36.3031C299.851 36.1396 300.261 35.5999 300.146 36.1232C300.343 35.2892 301.573 35.5182 301.605 36.3031Z" fill="#FF8080"/>
<path d="M263.112 44.4961C269.325 43.4659 276.014 43.9238 282.293 43.9074C285.473 43.8911 288.654 43.891 291.834 43.8747C294.425 43.8747 297.736 43.2696 300.113 44.3653C300.409 44.4961 300.409 45.0031 300.113 45.1502C297.949 46.1478 295.13 45.6408 292.785 45.6408C289.293 45.6245 285.785 45.6245 282.293 45.6081C276.014 45.5918 269.325 46.0496 263.112 45.0194C262.849 44.9703 262.849 44.5452 263.112 44.4961Z" fill="#FF8080"/>
<path d="M303.622 44.3816C303.966 44.3653 304.294 44.3653 304.638 44.3489C292.146 43.9238 279.67 43.9728 267.177 43.9728C260.734 43.9728 254.308 43.9074 247.865 43.9728C241.75 44.0382 235.454 43.6294 229.372 44.398C228.979 44.4471 228.979 45.0685 229.372 45.1339C235.717 45.9352 242.291 45.4937 248.685 45.5591C254.849 45.6245 261.013 45.5591 267.177 45.5591C279.67 45.5591 292.146 45.6081 304.638 45.183C304.294 45.1666 303.966 45.1666 303.622 45.1503C303.212 45.1176 303.212 44.398 303.622 44.3816ZM300.671 44.8886C300.802 44.7251 300.95 44.398 301.212 44.5615C300.95 44.398 300.818 44.7251 300.671 44.8886Z" fill="#FF8080"/>
<path d="M304.967 44.7578C304.967 44.5452 304.868 44.3326 304.638 44.3489C304.852 44.3489 304.95 44.5615 304.967 44.7578Z" fill="#FF8080"/>
<path d="M304.966 44.7578C304.966 44.5615 304.851 44.349 304.638 44.349C304.294 44.3653 303.966 44.3653 303.622 44.3817C303.212 44.398 303.212 45.1175 303.622 45.1339C303.966 45.1502 304.294 45.1502 304.638 45.1666C304.851 45.1666 304.95 44.954 304.966 44.7578Z" fill="#FF8080"/>
<path d="M304.622 45.1666C304.852 45.1666 304.967 44.9703 304.95 44.7578C304.95 44.954 304.852 45.1666 304.622 45.1666Z" fill="#FF8080"/>
<path d="M311.458 41.9777C313.836 39.9499 317.262 36.2704 316.409 32.9016C315.754 32.3456 315.311 32.3947 315.065 33.0815C314.622 33.752 314.541 34.7168 314.459 35.4691C314.36 36.5321 314.163 37.4806 313.934 38.5108C313.655 39.77 313.196 41.3236 311.934 41.9123C311.721 42.0104 311.524 41.8142 311.622 41.6016C312.196 40.3424 312.77 39.1977 313.065 37.824C313.409 36.1723 313.049 34.4061 313.754 32.8198C314.36 31.4462 315.901 30.0888 317.262 31.4625C318.803 33.0161 317.803 35.7635 316.885 37.317C315.672 39.3939 313.737 41.0456 311.655 42.223C311.508 42.3212 311.327 42.0922 311.458 41.9777Z" fill="#FF8080"/>
<path d="M311.984 41.6016C313.344 39.214 315.131 37.0881 315.377 34.259C315.377 34.1445 315.377 34.0136 315.377 33.8992C316.164 33.8338 316.263 34.0627 315.64 34.586C315.295 35.1584 315.181 35.9106 315.033 36.5484C314.787 37.6768 314.689 38.7071 313.967 39.6556C313.689 40.0153 313.049 39.9336 313.049 39.4103C313.049 37.6932 313.328 35.7307 314.049 34.1608C314.459 33.2777 315.738 31.4298 316.771 32.7544C317.574 33.7847 316.902 35.8779 316.459 36.9082C315.607 38.9033 314.213 40.7839 312.312 41.9123C312.099 42.0759 311.853 41.8142 311.984 41.6016Z" fill="#FF8080"/>
<path d="M314.623 41.3236C316.639 39.9826 318.639 38.7398 320.934 37.9057C322.311 37.4151 325.541 36.9246 325.853 39.0832C326.115 40.8984 323.033 41.4708 321.82 41.7651C319.738 42.2721 316.442 43.0243 314.459 41.9941C314.344 41.9286 314.344 41.7324 314.459 41.667C315.77 40.9965 317.508 41.1928 318.983 40.9311C320.672 40.6367 322.59 40.277 324.098 39.4266C324.918 38.9687 323.016 38.9197 322.754 38.936C321.688 39.0178 320.606 39.443 319.623 39.8191C318.049 40.4242 316.524 41.1928 314.983 41.8632C314.573 42.0431 314.262 41.5689 314.623 41.3236Z" fill="#FF8080"/>
<path d="M315.426 41.16C317.852 40.2769 320.721 40.2279 322.656 38.3309C322.869 38.8215 323.065 39.3121 323.279 39.8027C321.295 40.0316 319.655 41.0455 317.787 41.6015C317.672 41.2091 317.557 40.8003 317.459 40.4078C319.639 39.77 321.311 38.38 323.656 38.2164C324.197 38.1837 324.574 38.8542 324.295 39.2957C323.672 40.2606 322.803 40.4895 321.688 40.6367C321.36 40.6858 321.197 40.2115 321.426 39.9989C321.951 39.5247 322.623 39.1486 323.033 38.5598C323.246 38.9196 323.459 39.2794 323.672 39.6392C321.639 39.7046 319.721 40.6204 317.95 41.5198C317.426 41.7814 316.705 41.2254 317.082 40.6694C318.311 38.9196 321.279 38.2655 323.295 38.0529C324.066 37.9711 324.426 39.0341 323.918 39.5247C321.918 41.4217 318.164 42.4029 315.459 41.7814C315.081 41.7324 315.131 41.2581 315.426 41.16Z" fill="#FF8080"/>
<path d="M291.687 47.0799C293.015 48.1756 294.539 49.0587 296.097 49.8109C296.982 50.2525 297.9 50.5305 298.867 50.7267C299.261 50.8085 299.671 50.8412 300.064 50.8248C300.343 50.8248 302.999 50.2525 301.523 49.3203C300.523 48.6826 299.048 48.9115 297.933 48.9933C296.949 49.075 295.966 48.9442 294.998 48.8461C293.785 48.7316 292.49 48.5027 291.785 47.4561C291.67 47.2762 291.867 47.0799 292.047 47.129C293.621 47.5051 295.048 47.8649 296.671 47.9957C298.195 48.1102 299.622 47.5869 301.179 47.8158C302.687 48.0448 304.146 49.4348 303.212 50.923C302.113 52.6728 299.163 52.2803 297.556 51.7406C295.146 50.923 293.047 49.2222 291.474 47.2925C291.326 47.1617 291.523 46.9491 291.687 47.0799Z" fill="#FF8080"/>
<path d="M292.097 47.5051C294.507 48.3882 296.704 49.6147 299.343 49.6801C299.491 49.6801 299.655 49.6801 299.802 49.6801C300.606 49.5002 300.589 49.6147 299.77 49.9908C299.065 49.7128 298.245 49.7291 297.507 49.6964C296.343 49.6474 295.36 49.6474 294.31 49.1241C293.966 48.9442 293.999 48.3064 294.425 48.241C296.31 47.9794 298.327 47.9794 300.196 48.4536C301.098 48.6825 302.803 49.7619 301.737 50.8085C300.671 51.8551 298.327 51.3645 297.065 51.0538C295.114 50.5795 293.146 49.4348 291.835 47.9139C291.704 47.7504 291.835 47.407 292.097 47.5051Z" fill="#FF8080"/>
<path d="M292.786 50.0072C294.474 51.7897 296.081 53.5559 297.261 55.7308C297.934 56.9573 298.885 59.95 296.868 60.5878C295.081 61.1601 294.015 58.3637 293.524 57.1863C292.704 55.1912 291.36 52.1168 292.081 49.9745C292.13 49.811 292.327 49.7946 292.425 49.9254C293.327 51.1356 293.442 53.098 293.983 54.5371C294.54 56.0416 295.147 57.9222 296.327 59.0833C296.507 59.2468 296.327 57.1699 296.261 56.9737C295.934 55.9598 295.311 55.0113 294.753 54.1119C293.95 52.8527 293.081 51.6262 292.261 50.367C292.064 50.089 292.54 49.7455 292.786 50.0072Z" fill="#FF8080"/>
<path d="M293.097 50.7758C294.343 52.9508 294.834 55.7962 297.015 57.3498C296.589 57.6769 296.162 58.004 295.736 58.3147C295.195 56.385 293.933 54.9622 293.08 53.2124C293.441 52.9998 293.802 52.7872 294.162 52.591C295.13 54.6025 296.835 56.0252 297.343 58.2656C297.49 58.9197 296.851 59.3286 296.261 59.0833C295.277 58.6581 294.9 57.8241 294.621 56.8592C294.507 56.4667 294.982 56.2869 295.244 56.4995C295.834 56.9573 296.31 57.5134 296.998 57.8404C296.638 58.1184 296.277 58.3801 295.916 58.6581C295.539 56.6303 294.277 54.8641 293.064 53.2288C292.654 52.6728 293.425 52.1494 293.933 52.3784C295.785 53.2124 296.933 56.0579 297.408 57.8731C297.589 58.5436 296.769 59.3286 296.13 58.838C293.884 57.1863 292.261 53.7194 292.457 50.9393C292.474 50.6286 292.916 50.4651 293.097 50.7758Z" fill="#FF8080"/>
<path d="M247.603 46.3604C248.931 47.4561 250.455 48.3391 252.013 49.0914C252.898 49.5329 253.816 49.8109 254.783 50.0072C255.177 50.0889 255.587 50.1216 255.98 50.1053C256.259 50.1053 258.915 49.5329 257.439 48.6008C256.439 47.963 254.964 48.192 253.849 48.2737C252.865 48.3555 251.882 48.2247 250.914 48.1265C249.701 48.0121 248.406 47.7831 247.701 46.7365C247.586 46.5566 247.783 46.3604 247.963 46.4094C249.537 46.7856 250.963 47.1454 252.586 47.2762C254.111 47.3907 255.537 46.8673 257.095 47.0963C258.603 47.3252 260.062 48.7153 259.128 50.2034C258.029 51.9532 255.078 51.5608 253.472 51.0211C251.062 50.2034 248.963 48.5027 247.389 46.573C247.226 46.4258 247.422 46.2296 247.603 46.3604Z" fill="#FF8080"/>
<path d="M248.013 46.7692C250.423 47.6523 252.62 48.8788 255.259 48.9442C255.407 48.9442 255.571 48.9442 255.718 48.9442C256.522 48.7643 256.505 48.8788 255.686 49.2549C254.981 48.9769 254.161 48.9932 253.423 48.9605C252.259 48.9115 251.275 48.9115 250.226 48.3882C249.882 48.2083 249.915 47.5705 250.341 47.5051C252.226 47.2435 254.243 47.2434 256.112 47.7177C257.013 47.9466 258.719 49.026 257.653 50.0726C256.587 51.1192 254.243 50.6286 252.98 50.3179C251.03 49.8436 249.062 48.6989 247.751 47.178C247.62 47.0145 247.751 46.6874 248.013 46.7692Z" fill="#FF8080"/>
<path d="M248.702 49.2876C250.39 51.0701 251.997 52.8363 253.177 55.0113C253.85 56.2378 254.8 59.2305 252.784 59.8682C250.997 60.4406 249.931 57.6442 249.439 56.4667C248.62 54.4716 247.275 51.3972 247.997 49.2549C248.046 49.0914 248.243 49.075 248.341 49.2059C249.243 50.416 249.357 52.3784 249.898 53.8175C250.456 55.322 251.062 57.2026 252.243 58.3637C252.423 58.5273 252.243 56.4504 252.177 56.2542C251.849 55.2403 251.226 54.2918 250.669 53.3923C249.866 52.1331 248.997 50.9066 248.177 49.6474C247.98 49.3694 248.439 49.0096 248.702 49.2876Z" fill="#FF8080"/>
<path d="M248.996 50.0399C250.242 52.2149 250.734 55.0603 252.914 56.6139C252.488 56.941 252.062 57.268 251.636 57.5787C251.095 55.649 249.832 54.2263 248.98 52.4765C249.34 52.2639 249.701 52.0513 250.062 51.8551C251.029 53.8665 252.734 55.2893 253.242 57.5297C253.39 58.1838 252.75 58.5926 252.16 58.3473C251.177 57.9221 250.799 57.0881 250.521 56.1233C250.406 55.7308 250.881 55.5509 251.144 55.7635C251.734 56.2214 252.209 56.7774 252.898 57.1045C252.537 57.3825 252.177 57.6441 251.816 57.9221C251.439 55.8943 250.177 54.1282 248.963 52.4929C248.553 51.9369 249.324 51.4136 249.832 51.6425C251.685 52.4765 252.832 55.322 253.308 57.1372C253.488 57.8077 252.668 58.5926 252.029 58.102C249.783 56.4504 248.16 52.9835 248.357 50.2034C248.39 49.8927 248.816 49.7292 248.996 50.0399Z" fill="#FF8080"/>
</svg>
